# MagicaVoxel @ Ephtracy

# group
o 

# material
mtllib CamionNaranja.mtl
usemtl palette

# normals
vn -1 0 0
vn 1 0 0
vn 0 0 1
vn 0 0 -1
vn 0 -1 0
vn 0 1 0

# texcoords
vt 0.892578 0.5
vt 0.896484 0.5
vt 0.900391 0.5
vt 0.908203 0.5
vt 0.912109 0.5
vt 0.916016 0.5
vt 0.919922 0.5
vt 0.943359 0.5
vt 0.978516 0.5
vt 0.982422 0.5
vt 0.986328 0.5

# verts
v -1 0.2 0.4
v -1 0.2 -0.5
v -1 0.3 0.4
v -1 0.3 -0.5
v -0.9 0.3 0.4
v -0.9 0.3 0.2
v -0.9 0.3 0.1
v -0.9 0.3 -0.2
v -0.9 0.3 -0.3
v -0.9 0.3 -0.5
v -0.9 0.4 0.4
v -0.9 0.4 0.3
v -0.9 0.4 0.2
v -0.9 0.4 0.1
v -0.9 0.4 -0.2
v -0.9 0.4 -0.3
v -0.9 0.4 -0.4
v -0.9 0.4 -0.5
v -0.9 0.5 0.3
v -0.9 0.5 -0.4
v -0.8 0.1 0.4
v -0.8 0.1 0.3
v -0.8 0.1 -0.4
v -0.8 0.1 -0.5
v -0.8 0.2 0.4
v -0.8 0.2 0.3
v -0.8 0.2 -0.4
v -0.8 0.2 -0.5
v -0.8 0.4 0.4
v -0.8 0.4 0.3
v -0.8 0.4 -0.4
v -0.8 0.4 -0.5
v -0.8 0.5 0.4
v -0.8 0.5 0.3
v -0.8 0.5 -0.4
v -0.8 0.5 -0.5
v -0.8 0.6 0.3
v -0.8 0.6 -0.4
v -0.7 0.5 0.4
v -0.7 0.5 0.3
v -0.7 0.5 -0.4
v -0.7 0.5 -0.5
v -0.7 0.6 0.4
v -0.7 0.6 0.3
v -0.7 0.6 -0.4
v -0.7 0.6 -0.5
v -0.5 0.6 0.4
v -0.5 0.6 0.3
v -0.5 0.6 -0.4
v -0.5 0.6 -0.5
v -0.5 0.8 0.4
v -0.5 0.8 0.3
v -0.5 0.8 -0.4
v -0.5 0.8 -0.5
v -0.5 0.9 0.3
v -0.5 0.9 -0.4
v -0.4 0.8 0.4
v -0.4 0.8 0.3
v -0.4 0.8 -0.4
v -0.4 0.8 -0.5
v -0.4 0.9 0.4
v -0.4 0.9 0.3
v -0.4 0.9 -0.4
v -0.4 0.9 -0.5
v -0.4 1 0.3
v -0.4 1 -0.4
v 0.2 0.4 0.2
v 0.2 0.4 -0.1
v 0.2 0.6 0.2
v 0.2 0.6 -0.1
v 0.5 0.3 0.3
v 0.5 0.3 0.2
v 0.5 0.3 -0.1
v 0.5 0.3 -0.3
v 0.5 0.3 -0.4
v 0.5 0.4 0.3
v 0.5 0.4 0.2
v 0.5 0.4 -0.1
v 0.5 0.4 -0.3
v 0.5 0.4 -0.4
v 0.5 0.5 -0.1
v 0.5 0.5 -0.3
v 0.6 0.1 0.4
v 0.6 0.1 0.3
v 0.6 0.1 -0.4
v 0.6 0.1 -0.5
v 0.6 0.2 0.4
v 0.6 0.2 0.3
v 0.6 0.2 -0.4
v 0.6 0.2 -0.5
v 0.6 0.3 0.2
v 0.6 0.3 -7.45058e-009
v 0.6 0.4 0.2
v 0.6 0.4 -7.45058e-009
v 0.6 0.5 0.2
v 0.6 0.5 -7.45058e-009
v 0.9 0.3 0.2
v 0.9 0.3 0.1
v 0.9 0.3 -0.2
v 0.9 0.3 -0.3
v 0.9 0.4 0.3
v 0.9 0.4 0.2
v 0.9 0.4 0.1
v 0.9 0.4 -0.2
v 0.9 0.4 -0.3
v 0.9 0.4 -0.4
v 0.9 0.5 0.3
v 0.9 0.5 -0.4
v -0.5 0.1 0.4
v -0.5 0.1 0.3
v -0.5 0.1 -0.4
v -0.5 0.1 -0.5
v -0.5 0.2 0.4
v -0.5 0.2 0.3
v -0.5 0.2 -0.4
v -0.5 0.2 -0.5
v -0.1 0.8 0.4
v -0.1 0.8 0.3
v -0.1 0.8 -0.4
v -0.1 0.8 -0.5
v -0.1 0.9 0.4
v -0.1 0.9 0.3
v -0.1 0.9 -0.4
v -0.1 0.9 -0.5
v -0.1 1 0.3
v -0.1 1 -0.4
v -7.45058e-009 0.6 0.4
v -7.45058e-009 0.6 0.2
v -7.45058e-009 0.6 -0.3
v -7.45058e-009 0.6 -0.5
v -7.45058e-009 0.8 0.4
v -7.45058e-009 0.8 0.3
v -7.45058e-009 0.8 0.2
v -7.45058e-009 0.8 -0.3
v -7.45058e-009 0.8 -0.4
v -7.45058e-009 0.8 -0.5
v -7.45058e-009 0.9 0.3
v -7.45058e-009 0.9 -0.4
v 0.1 0.4 0.3
v 0.1 0.4 -0.4
v 0.1 0.6 0.3
v 0.1 0.6 -0.4
v 0.2 0.3 0.3
v 0.2 0.3 0.2
v 0.2 0.3 -0.3
v 0.2 0.3 -0.4
v 0.2 0.4 0.3
v 0.2 0.4 0.2
v 0.2 0.4 -0.3
v 0.2 0.4 -0.4
v 0.3 0.3 -0.1
v 0.3 0.3 -0.3
v 0.3 0.4 -0.1
v 0.3 0.4 -0.3
v 0.5 0.3 0.2
v 0.5 0.3 -0.1
v 0.5 0.4 0.2
v 0.5 0.4 -0.1
v 0.5 0.5 -0.1
v 0.5 0.6 0.2
v 0.5 0.6 -0.1
v 0.7 0.3 -0.1
v 0.7 0.3 -0.3
v 0.7 0.4 -0.1
v 0.7 0.4 -0.3
v 0.7 0.5 -0.1
v 0.7 0.5 -0.3
v 0.8 0.3 0.2
v 0.8 0.3 -7.45058e-009
v 0.8 0.4 0.2
v 0.8 0.4 -7.45058e-009
v 0.8 0.5 0.4
v 0.8 0.5 0.3
v 0.8 0.5 0.2
v 0.8 0.5 -7.45058e-009
v 0.8 0.5 -0.4
v 0.8 0.5 -0.5
v 0.8 0.6 0.4
v 0.8 0.6 0.3
v 0.8 0.6 -0.4
v 0.8 0.6 -0.5
v 0.9 0.1 0.4
v 0.9 0.1 0.3
v 0.9 0.1 -0.4
v 0.9 0.1 -0.5
v 0.9 0.2 0.4
v 0.9 0.2 0.3
v 0.9 0.2 -0.4
v 0.9 0.2 -0.5
v 0.9 0.4 0.4
v 0.9 0.4 0.3
v 0.9 0.4 -0.4
v 0.9 0.4 -0.5
v 0.9 0.5 0.4
v 0.9 0.5 0.3
v 0.9 0.5 -0.4
v 0.9 0.5 -0.5
v 1 0.2 0.4
v 1 0.2 -0.5
v 1 0.3 0.3
v 1 0.3 0.2
v 1 0.3 0.1
v 1 0.3 -0.2
v 1 0.3 -0.3
v 1 0.3 -0.4
v 1 0.4 0.4
v 1 0.4 0.3
v 1 0.4 0.2
v 1 0.4 0.1
v 1 0.4 -0.2
v 1 0.4 -0.3
v 1 0.4 -0.4
v 1 0.4 -0.5
v 1 0.5 0.3
v 1 0.5 -0.4
v -1 0.2 0.4
v -1 0.3 0.4
v -0.9 0.3 0.4
v -0.9 0.4 0.4
v -0.8 0.1 0.4
v -0.8 0.2 0.4
v -0.8 0.3 0.4
v -0.8 0.4 0.4
v -0.8 0.5 0.4
v -0.7 0.2 0.4
v -0.7 0.3 0.4
v -0.7 0.5 0.4
v -0.7 0.6 0.4
v -0.6 0.2 0.4
v -0.6 0.3 0.4
v -0.5 0.1 0.4
v -0.5 0.2 0.4
v -0.5 0.3 0.4
v -0.5 0.4 0.4
v -0.5 0.6 0.4
v -0.5 0.8 0.4
v -0.4 0.6 0.4
v -0.4 0.7 0.4
v -0.4 0.8 0.4
v -0.4 0.9 0.4
v -0.3 0.7 0.4
v -0.3 0.8 0.4
v -0.1 0.6 0.4
v -0.1 0.8 0.4
v -0.1 0.9 0.4
v -7.45058e-009 0.6 0.4
v -7.45058e-009 0.8 0.4
v 0.6 0.1 0.4
v 0.6 0.2 0.4
v 0.6 0.3 0.4
v 0.6 0.4 0.4
v 0.7 0.2 0.4
v 0.7 0.3 0.4
v 0.8 0.2 0.4
v 0.8 0.3 0.4
v 0.8 0.5 0.4
v 0.8 0.6 0.4
v 0.9 0.1 0.4
v 0.9 0.2 0.4
v 0.9 0.4 0.4
v 0.9 0.5 0.4
v 1 0.2 0.4
v 1 0.4 0.4
v -0.9 0.4 0.3
v -0.9 0.5 0.3
v -0.8 0.4 0.3
v -0.8 0.5 0.3
v -0.8 0.6 0.3
v -0.7 0.5 0.3
v -0.7 0.6 0.3
v -0.5 0.8 0.3
v -0.5 0.9 0.3
v -0.4 0.8 0.3
v -0.4 0.9 0.3
v -0.4 1 0.3
v -0.1 0.8 0.3
v -0.1 0.9 0.3
v -0.1 1 0.3
v -7.45058e-009 0.8 0.3
v -7.45058e-009 0.9 0.3
v 0.9 0.4 0.3
v 0.9 0.5 0.3
v 1 0.4 0.3
v 1 0.5 0.3
v 0.2 0.3 0.2
v 0.2 0.4 0.2
v 0.2 0.6 0.2
v 0.5 0.3 0.2
v 0.5 0.4 0.2
v 0.5 0.6 0.2
v 0.6 0.4 0.2
v 0.6 0.5 0.2
v 0.8 0.4 0.2
v 0.8 0.5 0.2
v 0.5 0.3 -0.1
v 0.5 0.4 -0.1
v 0.5 0.5 -0.1
v 0.7 0.3 -0.1
v 0.7 0.4 -0.1
v 0.7 0.5 -0.1
v 0.7 0.3 -0.3
v 0.7 0.4 -0.3
v 0.9 0.3 -0.3
v 0.9 0.4 -0.3
v -0.8 0.1 -0.4
v -0.8 0.2 -0.4
v -0.5 0.1 -0.4
v -0.5 0.2 -0.4
v 0.1 0.4 -0.4
v 0.1 0.6 -0.4
v 0.2 0.3 -0.4
v 0.2 0.4 -0.4
v 0.5 0.3 -0.4
v 0.5 0.4 -0.4
v 0.6 0.1 -0.4
v 0.6 0.2 -0.4
v 0.8 0.5 -0.4
v 0.8 0.6 -0.4
v 0.9 0.1 -0.4
v 0.9 0.2 -0.4
v 0.9 0.4 -0.4
v 0.9 0.5 -0.4
v -0.8 0.1 0.3
v -0.8 0.2 0.3
v -0.5 0.1 0.3
v -0.5 0.2 0.3
v 0.1 0.4 0.3
v 0.1 0.6 0.3
v 0.2 0.3 0.3
v 0.2 0.4 0.3
v 0.5 0.3 0.3
v 0.5 0.4 0.3
v 0.6 0.1 0.3
v 0.6 0.2 0.3
v 0.8 0.5 0.3
v 0.8 0.6 0.3
v 0.9 0.1 0.3
v 0.9 0.2 0.3
v 0.9 0.4 0.3
v 0.9 0.5 0.3
v 0.5 0.3 0.2
v 0.5 0.4 0.2
v 0.6 0.3 0.2
v 0.6 0.4 0.2
v 0.8 0.3 0.2
v 0.8 0.4 0.2
v 0.9 0.3 0.2
v 0.9 0.4 0.2
v 0.6 0.3 -7.45058e-009
v 0.6 0.4 -7.45058e-009
v 0.6 0.5 -7.45058e-009
v 0.8 0.3 -7.45058e-009
v 0.8 0.4 -7.45058e-009
v 0.8 0.5 -7.45058e-009
v 0.2 0.4 -0.1
v 0.2 0.6 -0.1
v 0.3 0.3 -0.1
v 0.3 0.4 -0.1
v 0.5 0.3 -0.1
v 0.5 0.4 -0.1
v 0.5 0.5 -0.1
v 0.5 0.6 -0.1
v 0.2 0.3 -0.3
v 0.2 0.4 -0.3
v 0.3 0.3 -0.3
v 0.3 0.4 -0.3
v 0.5 0.4 -0.3
v 0.5 0.5 -0.3
v 0.7 0.4 -0.3
v 0.7 0.5 -0.3
v -0.9 0.4 -0.4
v -0.9 0.5 -0.4
v -0.8 0.4 -0.4
v -0.8 0.5 -0.4
v -0.8 0.6 -0.4
v -0.7 0.5 -0.4
v -0.7 0.6 -0.4
v -0.5 0.8 -0.4
v -0.5 0.9 -0.4
v -0.4 0.8 -0.4
v -0.4 0.9 -0.4
v -0.4 1 -0.4
v -0.1 0.8 -0.4
v -0.1 0.9 -0.4
v -0.1 1 -0.4
v -7.45058e-009 0.8 -0.4
v -7.45058e-009 0.9 -0.4
v 0.9 0.4 -0.4
v 0.9 0.5 -0.4
v 1 0.4 -0.4
v 1 0.5 -0.4
v -1 0.2 -0.5
v -1 0.3 -0.5
v -0.9 0.3 -0.5
v -0.9 0.4 -0.5
v -0.8 0.1 -0.5
v -0.8 0.2 -0.5
v -0.8 0.3 -0.5
v -0.8 0.4 -0.5
v -0.8 0.5 -0.5
v -0.7 0.2 -0.5
v -0.7 0.3 -0.5
v -0.7 0.5 -0.5
v -0.7 0.6 -0.5
v -0.6 0.2 -0.5
v -0.6 0.3 -0.5
v -0.5 0.1 -0.5
v -0.5 0.2 -0.5
v -0.5 0.3 -0.5
v -0.5 0.4 -0.5
v -0.5 0.6 -0.5
v -0.5 0.8 -0.5
v -0.4 0.6 -0.5
v -0.4 0.7 -0.5
v -0.4 0.8 -0.5
v -0.4 0.9 -0.5
v -0.3 0.7 -0.5
v -0.3 0.8 -0.5
v -0.1 0.6 -0.5
v -0.1 0.8 -0.5
v -0.1 0.9 -0.5
v -7.45058e-009 0.6 -0.5
v -7.45058e-009 0.8 -0.5
v 0.6 0.1 -0.5
v 0.6 0.2 -0.5
v 0.6 0.3 -0.5
v 0.6 0.4 -0.5
v 0.7 0.2 -0.5
v 0.7 0.3 -0.5
v 0.8 0.2 -0.5
v 0.8 0.3 -0.5
v 0.8 0.5 -0.5
v 0.8 0.6 -0.5
v 0.9 0.1 -0.5
v 0.9 0.2 -0.5
v 0.9 0.4 -0.5
v 0.9 0.5 -0.5
v 1 0.2 -0.5
v 1 0.4 -0.5
v -0.8 0.1 0.4
v -0.5 0.1 0.4
v 0.6 0.1 0.4
v 0.9 0.1 0.4
v -0.8 0.1 0.3
v -0.5 0.1 0.3
v 0.6 0.1 0.3
v 0.9 0.1 0.3
v -0.8 0.1 -0.4
v -0.5 0.1 -0.4
v 0.6 0.1 -0.4
v 0.9 0.1 -0.4
v -0.8 0.1 -0.5
v -0.5 0.1 -0.5
v 0.6 0.1 -0.5
v 0.9 0.1 -0.5
v -1 0.2 0.4
v -0.8 0.2 0.4
v -0.5 0.2 0.4
v 0.6 0.2 0.4
v 0.9 0.2 0.4
v 1 0.2 0.4
v -0.8 0.2 0.3
v -0.5 0.2 0.3
v 0.6 0.2 0.3
v 0.9 0.2 0.3
v -0.8 0.2 -0.4
v -0.5 0.2 -0.4
v 0.6 0.2 -0.4
v 0.9 0.2 -0.4
v -1 0.2 -0.5
v -0.8 0.2 -0.5
v -0.5 0.2 -0.5
v 0.6 0.2 -0.5
v 0.9 0.2 -0.5
v 1 0.2 -0.5
v -1 0.3 0.4
v -0.9 0.3 0.4
v 0.2 0.3 0.3
v 0.5 0.3 0.3
v -0.9 0.3 0.2
v 0.2 0.3 0.2
v 0.5 0.3 0.2
v 0.6 0.3 0.2
v 0.8 0.3 0.2
v 0.9 0.3 0.2
v -0.9 0.3 0.1
v 0.9 0.3 0.1
v 0.6 0.3 -7.45058e-009
v 0.8 0.3 -7.45058e-009
v 0.3 0.3 -0.1
v 0.5 0.3 -0.1
v 0.7 0.3 -0.1
v -0.9 0.3 -0.2
v 0.9 0.3 -0.2
v -0.9 0.3 -0.3
v 0.2 0.3 -0.3
v 0.3 0.3 -0.3
v 0.5 0.3 -0.3
v 0.7 0.3 -0.3
v 0.9 0.3 -0.3
v 0.2 0.3 -0.4
v 0.5 0.3 -0.4
v -1 0.3 -0.5
v -0.9 0.3 -0.5
v -0.9 0.4 0.4
v -0.8 0.4 0.4
v 0.9 0.4 0.4
v 1 0.4 0.4
v -0.9 0.4 0.3
v -0.8 0.4 0.3
v 0.1 0.4 0.3
v 0.2 0.4 0.3
v 0.5 0.4 0.3
v 0.9 0.4 0.3
v 1 0.4 0.3
v 0.2 0.4 0.2
v 0.5 0.4 0.2
v 0.6 0.4 0.2
v 0.8 0.4 0.2
v 0.9 0.4 0.2
v 0.2 0.4 -0.1
v 0.3 0.4 -0.1
v 0.2 0.4 -0.3
v 0.3 0.4 -0.3
v 0.5 0.4 -0.3
v 0.7 0.4 -0.3
v 0.9 0.4 -0.3
v -0.9 0.4 -0.4
v -0.8 0.4 -0.4
v 0.1 0.4 -0.4
v 0.2 0.4 -0.4
v 0.5 0.4 -0.4
v 0.9 0.4 -0.4
v 1 0.4 -0.4
v -0.9 0.4 -0.5
v -0.8 0.4 -0.5
v 0.9 0.4 -0.5
v 1 0.4 -0.5
v -0.8 0.5 0.4
v -0.7 0.5 0.4
v 0.8 0.5 0.4
v 0.9 0.5 0.4
v -0.9 0.5 0.3
v -0.8 0.5 0.3
v -0.7 0.5 0.3
v 0.8 0.5 0.3
v 0.9 0.5 0.3
v 1 0.5 0.3
v 0.6 0.5 0.2
v 0.8 0.5 0.2
v 0.6 0.5 -7.45058e-009
v 0.8 0.5 -7.45058e-009
v 0.5 0.5 -0.1
v 0.7 0.5 -0.1
v 0.5 0.5 -0.3
v 0.7 0.5 -0.3
v -0.9 0.5 -0.4
v -0.8 0.5 -0.4
v -0.7 0.5 -0.4
v 0.8 0.5 -0.4
v 0.9 0.5 -0.4
v 1 0.5 -0.4
v -0.8 0.5 -0.5
v -0.7 0.5 -0.5
v 0.8 0.5 -0.5
v 0.9 0.5 -0.5
v -0.7 0.6 0.4
v -0.5 0.6 0.4
v -7.45058e-009 0.6 0.4
v 0.8 0.6 0.4
v -0.8 0.6 0.3
v -0.7 0.6 0.3
v -0.5 0.6 0.3
v 0.1 0.6 0.3
v 0.8 0.6 0.3
v -7.45058e-009 0.6 0.2
v 0.2 0.6 0.2
v 0.5 0.6 0.2
v 0.2 0.6 -0.1
v 0.5 0.6 -0.1
v -7.45058e-009 0.6 -0.3
v -0.8 0.6 -0.4
v -0.7 0.6 -0.4
v -0.5 0.6 -0.4
v 0.1 0.6 -0.4
v 0.8 0.6 -0.4
v -0.7 0.6 -0.5
v -0.5 0.6 -0.5
v -7.45058e-009 0.6 -0.5
v 0.8 0.6 -0.5
v -0.5 0.8 0.4
v -0.4 0.8 0.4
v -0.1 0.8 0.4
v -7.45058e-009 0.8 0.4
v -0.5 0.8 0.3
v -0.4 0.8 0.3
v -0.1 0.8 0.3
v -7.45058e-009 0.8 0.3
v -0.5 0.8 -0.4
v -0.4 0.8 -0.4
v -0.1 0.8 -0.4
v -7.45058e-009 0.8 -0.4
v -0.5 0.8 -0.5
v -0.4 0.8 -0.5
v -0.1 0.8 -0.5
v -7.45058e-009 0.8 -0.5
v -0.4 0.9 0.4
v -0.1 0.9 0.4
v -0.5 0.9 0.3
v -0.4 0.9 0.3
v -0.1 0.9 0.3
v -7.45058e-009 0.9 0.3
v -0.5 0.9 -0.4
v -0.4 0.9 -0.4
v -0.1 0.9 -0.4
v -7.45058e-009 0.9 -0.4
v -0.4 0.9 -0.5
v -0.1 0.9 -0.5
v -0.4 1 0.3
v -0.1 1 0.3
v -0.4 1 -0.4
v -0.1 1 -0.4

# faces
f 3/2/1 2/2/1 1/2/1
f 4/2/1 2/2/1 3/2/1
f 11/1/1 6/1/1 5/1/1
f 12/1/1 6/1/1 11/1/1
f 13/11/1 7/11/1 6/11/1
f 13/1/1 6/1/1 12/1/1
f 14/4/1 8/4/1 7/4/1
f 14/11/1 7/11/1 13/11/1
f 15/11/1 9/11/1 8/11/1
f 15/4/1 8/4/1 14/4/1
f 16/1/1 10/1/1 9/1/1
f 16/11/1 9/11/1 15/11/1
f 17/1/1 10/1/1 16/1/1
f 18/1/1 10/1/1 17/1/1
f 19/1/1 15/1/1 14/1/1
f 19/1/1 17/1/1 16/1/1
f 19/1/1 16/1/1 15/1/1
f 19/1/1 13/1/1 12/1/1
f 19/1/1 14/1/1 13/1/1
f 20/1/1 17/1/1 19/1/1
f 25/4/1 22/4/1 21/4/1
f 26/4/1 22/4/1 25/4/1
f 27/4/1 24/4/1 23/4/1
f 28/4/1 24/4/1 27/4/1
f 33/1/1 30/1/1 29/1/1
f 34/1/1 30/1/1 33/1/1
f 35/1/1 32/1/1 31/1/1
f 36/1/1 32/1/1 35/1/1
f 37/1/1 35/1/1 34/1/1
f 38/1/1 35/1/1 37/1/1
f 43/1/1 40/1/1 39/1/1
f 44/1/1 40/1/1 43/1/1
f 45/1/1 42/1/1 41/1/1
f 46/1/1 42/1/1 45/1/1
f 51/1/1 48/1/1 47/1/1
f 52/4/1 49/4/1 48/4/1
f 52/1/1 48/1/1 51/1/1
f 53/1/1 50/1/1 49/1/1
f 53/4/1 49/4/1 52/4/1
f 54/1/1 50/1/1 53/1/1
f 55/1/1 53/1/1 52/1/1
f 56/1/1 53/1/1 55/1/1
f 61/1/1 58/1/1 57/1/1
f 62/1/1 58/1/1 61/1/1
f 63/1/1 60/1/1 59/1/1
f 64/1/1 60/1/1 63/1/1
f 65/1/1 63/1/1 62/1/1
f 66/1/1 63/1/1 65/1/1
f 69/10/1 68/10/1 67/10/1
f 70/10/1 68/10/1 69/10/1
f 76/3/1 72/3/1 71/3/1
f 77/3/1 72/3/1 76/3/1
f 78/9/1 74/9/1 73/9/1
f 79/3/1 75/3/1 74/3/1
f 79/9/1 74/9/1 78/9/1
f 80/3/1 75/3/1 79/3/1
f 81/10/1 79/10/1 78/10/1
f 82/10/1 79/10/1 81/10/1
f 87/4/1 84/4/1 83/4/1
f 88/4/1 84/4/1 87/4/1
f 89/4/1 86/4/1 85/4/1
f 90/4/1 86/4/1 89/4/1
f 93/9/1 92/9/1 91/9/1
f 94/9/1 92/9/1 93/9/1
f 95/10/1 94/10/1 93/10/1
f 96/10/1 94/10/1 95/10/1
f 102/7/1 98/7/1 97/7/1
f 103/1/1 99/1/1 98/1/1
f 103/7/1 98/7/1 102/7/1
f 104/7/1 100/7/1 99/7/1
f 104/1/1 99/1/1 103/1/1
f 105/7/1 100/7/1 104/7/1
f 107/1/1 103/1/1 102/1/1
f 107/1/1 106/1/1 105/1/1
f 107/1/1 105/1/1 104/1/1
f 107/1/1 104/1/1 103/1/1
f 107/1/1 102/1/1 101/1/1
f 108/1/1 106/1/1 107/1/1
f 109/4/2 110/4/2 113/4/2
f 113/4/2 110/4/2 114/4/2
f 111/4/2 112/4/2 115/4/2
f 115/4/2 112/4/2 116/4/2
f 117/1/2 118/1/2 121/1/2
f 121/1/2 118/1/2 122/1/2
f 119/1/2 120/1/2 123/1/2
f 123/1/2 120/1/2 124/1/2
f 122/1/2 123/1/2 125/1/2
f 125/1/2 123/1/2 126/1/2
f 127/1/2 128/1/2 131/1/2
f 131/1/2 128/1/2 132/1/2
f 128/4/2 129/4/2 133/4/2
f 132/1/2 128/1/2 133/1/2
f 129/1/2 130/1/2 134/1/2
f 133/4/2 129/4/2 134/4/2
f 134/1/2 130/1/2 135/1/2
f 135/1/2 130/1/2 136/1/2
f 132/1/2 133/1/2 137/1/2
f 134/1/2 135/1/2 137/1/2
f 133/1/2 134/1/2 137/1/2
f 137/1/2 135/1/2 138/1/2
f 139/1/2 140/1/2 141/1/2
f 141/1/2 140/1/2 142/1/2
f 143/3/2 144/3/2 147/3/2
f 147/3/2 144/3/2 148/3/2
f 145/3/2 146/3/2 149/3/2
f 149/3/2 146/3/2 150/3/2
f 151/8/2 152/8/2 153/8/2
f 153/8/2 152/8/2 154/8/2
f 155/9/2 156/9/2 157/9/2
f 157/9/2 156/9/2 158/9/2
f 157/10/2 158/10/2 159/10/2
f 157/10/2 159/10/2 160/10/2
f 160/10/2 159/10/2 161/10/2
f 162/9/2 163/9/2 164/9/2
f 164/9/2 163/9/2 165/9/2
f 164/10/2 165/10/2 166/10/2
f 166/10/2 165/10/2 167/10/2
f 168/9/2 169/9/2 170/9/2
f 170/9/2 169/9/2 171/9/2
f 170/10/2 171/10/2 174/10/2
f 174/10/2 171/10/2 175/10/2
f 172/1/2 173/1/2 178/1/2
f 178/1/2 173/1/2 179/1/2
f 176/1/2 177/1/2 180/1/2
f 180/1/2 177/1/2 181/1/2
f 182/4/2 183/4/2 186/4/2
f 186/4/2 183/4/2 187/4/2
f 184/4/2 185/4/2 188/4/2
f 188/4/2 185/4/2 189/4/2
f 190/1/2 191/1/2 194/1/2
f 194/1/2 191/1/2 195/1/2
f 192/1/2 193/1/2 196/1/2
f 196/1/2 193/1/2 197/1/2
f 198/2/2 199/2/2 200/2/2
f 200/2/2 199/2/2 201/2/2
f 201/2/2 199/2/2 202/2/2
f 202/2/2 199/2/2 203/2/2
f 203/2/2 199/2/2 204/2/2
f 204/2/2 199/2/2 205/2/2
f 198/2/2 200/2/2 206/2/2
f 200/6/2 201/6/2 207/6/2
f 206/2/2 200/2/2 207/2/2
f 201/7/2 202/7/2 208/7/2
f 207/6/2 201/6/2 208/6/2
f 202/1/2 203/1/2 209/1/2
f 208/7/2 202/7/2 209/7/2
f 203/7/2 204/7/2 210/7/2
f 209/1/2 203/1/2 210/1/2
f 204/6/2 205/6/2 211/6/2
f 210/7/2 204/7/2 211/7/2
f 205/2/2 199/2/2 212/2/2
f 211/6/2 205/6/2 212/6/2
f 212/2/2 199/2/2 213/2/2
f 210/1/2 211/1/2 214/1/2
f 211/1/2 212/1/2 214/1/2
f 209/1/2 210/1/2 214/1/2
f 208/1/2 209/1/2 214/1/2
f 207/1/2 208/1/2 214/1/2
f 214/1/2 212/1/2 215/1/2
f 218/2/3 217/2/3 216/2/3
f 221/2/3 218/2/3 216/2/3
f 222/1/3 219/1/3 218/1/3
f 222/2/3 218/2/3 221/2/3
f 223/1/3 219/1/3 222/1/3
f 225/4/3 221/4/3 220/4/3
f 225/4/3 222/4/3 221/4/3
f 225/4/3 223/4/3 222/4/3
f 226/4/3 223/4/3 225/4/3
f 227/1/3 224/1/3 223/1/3
f 229/4/3 225/4/3 220/4/3
f 229/5/3 226/5/3 225/5/3
f 230/4/3 223/4/3 226/4/3
f 230/5/3 226/5/3 229/5/3
f 231/4/3 229/4/3 220/4/3
f 231/4/3 230/4/3 229/4/3
f 232/4/3 230/4/3 231/4/3
f 233/4/3 223/4/3 230/4/3
f 233/4/3 230/4/3 232/4/3
f 234/1/3 228/1/3 227/1/3
f 234/4/3 223/4/3 233/4/3
f 234/1/3 227/1/3 223/1/3
f 235/1/3 228/1/3 234/1/3
f 237/1/3 236/1/3 235/1/3
f 237/1/3 235/1/3 234/1/3
f 237/1/3 234/1/3 233/1/3
f 238/1/3 236/1/3 237/1/3
f 239/1/3 236/1/3 238/1/3
f 241/4/3 238/4/3 237/4/3
f 241/1/3 240/1/3 239/1/3
f 241/1/3 239/1/3 238/1/3
f 242/1/3 240/1/3 241/1/3
f 243/1/3 237/1/3 233/1/3
f 243/4/3 241/4/3 237/4/3
f 243/4/3 242/4/3 241/4/3
f 244/1/3 240/1/3 242/1/3
f 244/4/3 242/4/3 243/4/3
f 245/1/3 240/1/3 244/1/3
f 246/1/3 243/1/3 233/1/3
f 246/1/3 244/1/3 243/1/3
f 247/1/3 244/1/3 246/1/3
f 249/2/3 233/2/3 232/2/3
f 250/1/3 246/1/3 233/1/3
f 250/2/3 233/2/3 249/2/3
f 251/1/3 246/1/3 250/1/3
f 252/4/3 249/4/3 248/4/3
f 252/4/3 250/4/3 249/4/3
f 252/4/3 251/4/3 250/4/3
f 253/4/3 251/4/3 252/4/3
f 254/4/3 252/4/3 248/4/3
f 254/5/3 253/5/3 252/5/3
f 255/4/3 251/4/3 253/4/3
f 255/5/3 253/5/3 254/5/3
f 256/1/3 246/1/3 251/1/3
f 257/1/3 246/1/3 256/1/3
f 258/4/3 254/4/3 248/4/3
f 258/4/3 255/4/3 254/4/3
f 259/4/3 255/4/3 258/4/3
f 260/4/3 251/4/3 255/4/3
f 260/4/3 255/4/3 259/4/3
f 260/1/3 256/1/3 251/1/3
f 261/1/3 256/1/3 260/1/3
f 262/2/3 260/2/3 259/2/3
f 263/2/3 260/2/3 262/2/3
f 266/1/3 265/1/3 264/1/3
f 267/1/3 265/1/3 266/1/3
f 269/1/3 268/1/3 267/1/3
f 270/1/3 268/1/3 269/1/3
f 273/1/3 272/1/3 271/1/3
f 274/1/3 272/1/3 273/1/3
f 277/1/3 275/1/3 274/1/3
f 278/1/3 275/1/3 277/1/3
f 279/1/3 277/1/3 276/1/3
f 280/1/3 277/1/3 279/1/3
f 283/1/3 282/1/3 281/1/3
f 284/1/3 282/1/3 283/1/3
f 288/9/3 286/9/3 285/9/3
f 289/10/3 287/10/3 286/10/3
f 289/9/3 286/9/3 288/9/3
f 290/10/3 287/10/3 289/10/3
f 293/10/3 292/10/3 291/10/3
f 294/10/3 292/10/3 293/10/3
f 298/9/3 296/9/3 295/9/3
f 299/10/3 297/10/3 296/10/3
f 299/9/3 296/9/3 298/9/3
f 300/10/3 297/10/3 299/10/3
f 303/3/3 302/3/3 301/3/3
f 304/3/3 302/3/3 303/3/3
f 307/4/3 306/4/3 305/4/3
f 308/4/3 306/4/3 307/4/3
f 312/1/3 310/1/3 309/1/3
f 313/1/3 312/1/3 311/1/3
f 314/1/3 310/1/3 312/1/3
f 314/1/3 312/1/3 313/1/3
f 317/1/3 310/1/3 314/1/3
f 318/1/3 310/1/3 317/1/3
f 319/4/3 316/4/3 315/4/3
f 320/4/3 316/4/3 319/4/3
f 321/1/3 317/1/3 314/1/3
f 322/1/3 317/1/3 321/1/3
f 323/4/4 324/4/4 325/4/4
f 325/4/4 324/4/4 326/4/4
f 327/1/4 328/1/4 330/1/4
f 329/1/4 330/1/4 331/1/4
f 330/1/4 328/1/4 332/1/4
f 331/1/4 330/1/4 332/1/4
f 332/1/4 328/1/4 335/1/4
f 335/1/4 328/1/4 336/1/4
f 333/4/4 334/4/4 337/4/4
f 337/4/4 334/4/4 338/4/4
f 332/1/4 335/1/4 339/1/4
f 339/1/4 335/1/4 340/1/4
f 341/3/4 342/3/4 343/3/4
f 343/3/4 342/3/4 344/3/4
f 345/3/4 346/3/4 347/3/4
f 347/3/4 346/3/4 348/3/4
f 349/9/4 350/9/4 352/9/4
f 350/10/4 351/10/4 353/10/4
f 352/9/4 350/9/4 353/9/4
f 353/10/4 351/10/4 354/10/4
f 355/10/4 356/10/4 358/10/4
f 357/9/4 358/9/4 359/9/4
f 358/10/4 356/10/4 360/10/4
f 359/9/4 358/9/4 360/9/4
f 360/10/4 356/10/4 361/10/4
f 361/10/4 356/10/4 362/10/4
f 363/8/4 364/8/4 365/8/4
f 365/8/4 364/8/4 366/8/4
f 367/10/4 368/10/4 369/10/4
f 369/10/4 368/10/4 370/10/4
f 371/1/4 372/1/4 373/1/4
f 373/1/4 372/1/4 374/1/4
f 374/1/4 375/1/4 376/1/4
f 376/1/4 375/1/4 377/1/4
f 378/1/4 379/1/4 380/1/4
f 380/1/4 379/1/4 381/1/4
f 381/1/4 382/1/4 384/1/4
f 384/1/4 382/1/4 385/1/4
f 383/1/4 384/1/4 386/1/4
f 386/1/4 384/1/4 387/1/4
f 388/1/4 389/1/4 390/1/4
f 390/1/4 389/1/4 391/1/4
f 392/2/4 393/2/4 394/2/4
f 392/2/4 394/2/4 397/2/4
f 394/1/4 395/1/4 398/1/4
f 397/2/4 394/2/4 398/2/4
f 398/1/4 395/1/4 399/1/4
f 396/4/4 397/4/4 401/4/4
f 397/4/4 398/4/4 401/4/4
f 398/4/4 399/4/4 401/4/4
f 401/4/4 399/4/4 402/4/4
f 399/1/4 400/1/4 403/1/4
f 396/4/4 401/4/4 405/4/4
f 401/5/4 402/5/4 405/5/4
f 402/4/4 399/4/4 406/4/4
f 405/5/4 402/5/4 406/5/4
f 396/4/4 405/4/4 407/4/4
f 405/4/4 406/4/4 407/4/4
f 407/4/4 406/4/4 408/4/4
f 406/4/4 399/4/4 409/4/4
f 408/4/4 406/4/4 409/4/4
f 403/1/4 404/1/4 410/1/4
f 409/4/4 399/4/4 410/4/4
f 399/1/4 403/1/4 410/1/4
f 410/1/4 404/1/4 411/1/4
f 411/1/4 412/1/4 413/1/4
f 410/1/4 411/1/4 413/1/4
f 409/1/4 410/1/4 413/1/4
f 413/1/4 412/1/4 414/1/4
f 414/1/4 412/1/4 415/1/4
f 413/4/4 414/4/4 417/4/4
f 415/1/4 416/1/4 417/1/4
f 414/1/4 415/1/4 417/1/4
f 417/1/4 416/1/4 418/1/4
f 409/1/4 413/1/4 419/1/4
f 413/4/4 417/4/4 419/4/4
f 417/4/4 418/4/4 419/4/4
f 418/1/4 416/1/4 420/1/4
f 419/4/4 418/4/4 420/4/4
f 420/1/4 416/1/4 421/1/4
f 409/1/4 419/1/4 422/1/4
f 419/1/4 420/1/4 422/1/4
f 422/1/4 420/1/4 423/1/4
f 408/2/4 409/2/4 425/2/4
f 409/1/4 422/1/4 426/1/4
f 425/2/4 409/2/4 426/2/4
f 426/1/4 422/1/4 427/1/4
f 424/4/4 425/4/4 428/4/4
f 425/4/4 426/4/4 428/4/4
f 426/4/4 427/4/4 428/4/4
f 428/4/4 427/4/4 429/4/4
f 424/4/4 428/4/4 430/4/4
f 428/5/4 429/5/4 430/5/4
f 429/4/4 427/4/4 431/4/4
f 430/5/4 429/5/4 431/5/4
f 427/1/4 422/1/4 432/1/4
f 432/1/4 422/1/4 433/1/4
f 424/4/4 430/4/4 434/4/4
f 430/4/4 431/4/4 434/4/4
f 434/4/4 431/4/4 435/4/4
f 431/4/4 427/4/4 436/4/4
f 435/4/4 431/4/4 436/4/4
f 427/1/4 432/1/4 436/1/4
f 436/1/4 432/1/4 437/1/4
f 435/2/4 436/2/4 438/2/4
f 438/2/4 436/2/4 439/2/4
f 444/4/5 441/4/5 440/4/5
f 445/4/5 441/4/5 444/4/5
f 446/4/5 443/4/5 442/4/5
f 447/4/5 443/4/5 446/4/5
f 452/4/5 449/4/5 448/4/5
f 453/4/5 449/4/5 452/4/5
f 454/4/5 451/4/5 450/4/5
f 455/4/5 451/4/5 454/4/5
f 462/2/5 457/2/5 456/2/5
f 463/2/5 459/2/5 458/2/5
f 464/2/5 459/2/5 463/2/5
f 465/2/5 461/2/5 460/2/5
f 466/2/5 464/2/5 463/2/5
f 466/2/5 465/2/5 464/2/5
f 466/2/5 462/2/5 456/2/5
f 466/2/5 463/2/5 462/2/5
f 467/2/5 465/2/5 466/2/5
f 468/2/5 465/2/5 467/2/5
f 469/2/5 461/2/5 465/2/5
f 469/2/5 465/2/5 468/2/5
f 470/2/5 466/2/5 456/2/5
f 471/2/5 466/2/5 470/2/5
f 472/2/5 468/2/5 467/2/5
f 473/2/5 468/2/5 472/2/5
f 474/2/5 461/2/5 469/2/5
f 475/2/5 461/2/5 474/2/5
f 476/2/6 477/2/6 480/2/6
f 478/2/6 479/2/6 481/2/6
f 481/2/6 479/2/6 482/2/6
f 476/2/6 480/2/6 486/2/6
f 484/2/6 485/2/6 487/2/6
f 482/2/6 483/2/6 488/2/6
f 484/2/6 487/2/6 489/2/6
f 482/2/6 488/2/6 491/2/6
f 488/2/6 489/2/6 491/2/6
f 491/2/6 489/2/6 492/2/6
f 476/2/6 486/2/6 493/2/6
f 492/2/6 489/2/6 494/2/6
f 489/2/6 487/2/6 494/2/6
f 476/2/6 493/2/6 495/2/6
f 490/2/6 491/2/6 497/2/6
f 497/2/6 491/2/6 498/2/6
f 492/2/6 494/2/6 499/2/6
f 499/2/6 494/2/6 500/2/6
f 497/2/6 498/2/6 501/2/6
f 496/2/6 497/2/6 501/2/6
f 501/2/6 498/2/6 502/2/6
f 476/2/6 495/2/6 503/2/6
f 503/2/6 495/2/6 504/2/6
f 505/1/6 506/1/6 509/1/6
f 509/1/6 506/1/6 510/1/6
f 507/2/6 508/2/6 514/2/6
f 514/2/6 508/2/6 515/2/6
f 511/3/6 512/3/6 516/3/6
f 513/3/6 514/3/6 517/3/6
f 517/3/6 514/3/6 518/3/6
f 518/3/6 514/3/6 519/3/6
f 519/3/6 514/3/6 520/3/6
f 511/3/6 516/3/6 521/3/6
f 511/3/6 521/3/6 523/3/6
f 521/8/6 522/8/6 523/8/6
f 523/8/6 522/8/6 524/8/6
f 511/3/6 523/3/6 530/3/6
f 530/3/6 523/3/6 531/3/6
f 526/3/6 527/3/6 532/3/6
f 525/3/6 526/3/6 532/3/6
f 532/3/6 527/3/6 533/3/6
f 528/1/6 529/1/6 535/1/6
f 535/1/6 529/1/6 536/1/6
f 533/2/6 534/2/6 537/2/6
f 537/2/6 534/2/6 538/2/6
f 539/1/6 540/1/6 544/1/6
f 544/1/6 540/1/6 545/1/6
f 541/1/6 542/1/6 546/1/6
f 546/1/6 542/1/6 547/1/6
f 549/10/6 550/10/6 551/10/6
f 551/10/6 550/10/6 552/10/6
f 553/10/6 554/10/6 555/10/6
f 555/10/6 554/10/6 556/10/6
f 543/1/6 544/1/6 557/1/6
f 557/1/6 544/1/6 558/1/6
f 547/1/6 548/1/6 561/1/6
f 561/1/6 548/1/6 562/1/6
f 558/1/6 559/1/6 563/1/6
f 563/1/6 559/1/6 564/1/6
f 560/1/6 561/1/6 565/1/6
f 565/1/6 561/1/6 566/1/6
f 567/1/6 568/1/6 572/1/6
f 572/1/6 568/1/6 573/1/6
f 569/1/6 570/1/6 574/1/6
f 574/1/6 570/1/6 575/1/6
f 569/1/6 574/1/6 576/1/6
f 577/10/6 578/10/6 579/10/6
f 579/10/6 578/10/6 580/10/6
f 576/1/6 574/1/6 581/1/6
f 572/1/6 573/1/6 582/1/6
f 571/1/6 572/1/6 582/1/6
f 582/1/6 573/1/6 583/1/6
f 583/1/6 573/1/6 584/1/6
f 581/1/6 574/1/6 585/1/6
f 583/1/6 584/1/6 587/1/6
f 587/1/6 584/1/6 588/1/6
f 585/1/6 586/1/6 589/1/6
f 581/1/6 585/1/6 589/1/6
f 589/1/6 586/1/6 590/1/6
f 591/1/6 592/1/6 595/1/6
f 595/1/6 592/1/6 596/1/6
f 593/1/6 594/1/6 597/1/6
f 597/1/6 594/1/6 598/1/6
f 599/1/6 600/1/6 603/1/6
f 603/1/6 600/1/6 604/1/6
f 601/1/6 602/1/6 605/1/6
f 605/1/6 602/1/6 606/1/6
f 607/1/6 608/1/6 610/1/6
f 610/1/6 608/1/6 611/1/6
f 609/1/6 610/1/6 613/1/6
f 613/1/6 610/1/6 614/1/6
f 611/1/6 612/1/6 615/1/6
f 615/1/6 612/1/6 616/1/6
f 614/1/6 615/1/6 617/1/6
f 617/1/6 615/1/6 618/1/6
f 619/1/6 620/1/6 621/1/6
f 621/1/6 620/1/6 622/1/6
