# MagicaVoxel @ Ephtracy

# group
o 

# material
mtllib CamionBlanco.mtl
usemtl palette

# normals
vn -1 0 0
vn 1 0 0
vn 0 0 1
vn 0 0 -1
vn 0 -1 0
vn 0 1 0

# texcoords
vt 0.876953 0.5
vt 0.908203 0.5
vt 0.912109 0.5
vt 0.916016 0.5
vt 0.919922 0.5
vt 0.966797 0.5
vt 0.986328 0.5

# verts
v -1 0.2 0.4
v -1 0.2 -0.5
v -1 0.3 0.4
v -1 0.3 -0.5
v -0.9 0.3 0.4
v -0.9 0.3 0.2
v -0.9 0.3 0.1
v -0.9 0.3 -0.2
v -0.9 0.3 -0.3
v -0.9 0.3 -0.5
v -0.9 0.4 0.4
v -0.9 0.4 0.3
v -0.9 0.4 0.2
v -0.9 0.4 0.1
v -0.9 0.4 -0.2
v -0.9 0.4 -0.3
v -0.9 0.4 -0.4
v -0.9 0.4 -0.5
v -0.9 0.5 0.3
v -0.9 0.5 -0.4
v -0.8 0.1 0.4
v -0.8 0.1 0.3
v -0.8 0.1 -0.4
v -0.8 0.1 -0.5
v -0.8 0.2 0.4
v -0.8 0.2 0.3
v -0.8 0.2 -0.4
v -0.8 0.2 -0.5
v -0.8 0.4 0.4
v -0.8 0.4 0.3
v -0.8 0.4 -0.4
v -0.8 0.4 -0.5
v -0.8 0.5 0.4
v -0.8 0.5 0.3
v -0.8 0.5 -0.4
v -0.8 0.5 -0.5
v -0.8 0.6 0.3
v -0.8 0.6 -0.4
v -0.7 0.5 0.4
v -0.7 0.5 0.3
v -0.7 0.5 -0.4
v -0.7 0.5 -0.5
v -0.7 0.6 0.4
v -0.7 0.6 0.3
v -0.7 0.6 -0.4
v -0.7 0.6 -0.5
v -0.5 0.6 0.4
v -0.5 0.6 0.3
v -0.5 0.6 -0.4
v -0.5 0.6 -0.5
v -0.5 0.8 0.4
v -0.5 0.8 0.3
v -0.5 0.8 -0.4
v -0.5 0.8 -0.5
v -0.5 0.9 0.3
v -0.5 0.9 -0.4
v -0.4 0.8 0.4
v -0.4 0.8 0.3
v -0.4 0.8 -0.4
v -0.4 0.8 -0.5
v -0.4 0.9 0.4
v -0.4 0.9 0.3
v -0.4 0.9 -0.4
v -0.4 0.9 -0.5
v -0.4 1 0.3
v -0.4 1 -0.4
v 0.5 0.3 0.3
v 0.5 0.3 0.2
v 0.5 0.3 -0.3
v 0.5 0.3 -0.4
v 0.5 0.4 0.3
v 0.5 0.4 0.2
v 0.5 0.4 -0.3
v 0.5 0.4 -0.4
v 0.6 0.1 0.4
v 0.6 0.1 0.3
v 0.6 0.1 -0.4
v 0.6 0.1 -0.5
v 0.6 0.2 0.4
v 0.6 0.2 0.3
v 0.6 0.2 -0.4
v 0.6 0.2 -0.5
v 0.9 0.3 0.2
v 0.9 0.3 0.1
v 0.9 0.3 -0.2
v 0.9 0.3 -0.3
v 0.9 0.4 0.3
v 0.9 0.4 0.2
v 0.9 0.4 0.1
v 0.9 0.4 -0.2
v 0.9 0.4 -0.3
v 0.9 0.4 -0.4
v 0.9 0.5 0.3
v 0.9 0.5 -0.4
v -0.5 0.1 0.4
v -0.5 0.1 0.3
v -0.5 0.1 -0.4
v -0.5 0.1 -0.5
v -0.5 0.2 0.4
v -0.5 0.2 0.3
v -0.5 0.2 -0.4
v -0.5 0.2 -0.5
v -0.1 0.8 0.4
v -0.1 0.8 0.3
v -0.1 0.8 -0.4
v -0.1 0.8 -0.5
v -0.1 0.9 0.4
v -0.1 0.9 0.3
v -0.1 0.9 -0.4
v -0.1 0.9 -0.5
v -0.1 1 0.3
v -0.1 1 -0.4
v -7.45058e-009 0.6 0.4
v -7.45058e-009 0.6 0.2
v -7.45058e-009 0.6 -0.3
v -7.45058e-009 0.6 -0.5
v -7.45058e-009 0.8 0.4
v -7.45058e-009 0.8 0.3
v -7.45058e-009 0.8 0.2
v -7.45058e-009 0.8 -0.3
v -7.45058e-009 0.8 -0.4
v -7.45058e-009 0.8 -0.5
v -7.45058e-009 0.9 0.3
v -7.45058e-009 0.9 -0.4
v 0.1 0.4 0.3
v 0.1 0.4 -0.4
v 0.1 0.6 0.3
v 0.1 0.6 -0.4
v 0.2 0.3 0.3
v 0.2 0.3 -0.4
v 0.2 0.4 0.3
v 0.2 0.4 -0.4
v 0.8 0.5 0.4
v 0.8 0.5 0.3
v 0.8 0.5 -0.4
v 0.8 0.5 -0.5
v 0.8 0.6 0.4
v 0.8 0.6 0.3
v 0.8 0.6 -0.4
v 0.8 0.6 -0.5
v 0.9 0.1 0.4
v 0.9 0.1 0.3
v 0.9 0.1 -0.4
v 0.9 0.1 -0.5
v 0.9 0.2 0.4
v 0.9 0.2 0.3
v 0.9 0.2 -0.4
v 0.9 0.2 -0.5
v 0.9 0.4 0.4
v 0.9 0.4 0.3
v 0.9 0.4 -0.4
v 0.9 0.4 -0.5
v 0.9 0.5 0.4
v 0.9 0.5 0.3
v 0.9 0.5 -0.4
v 0.9 0.5 -0.5
v 1 0.2 0.4
v 1 0.2 -0.5
v 1 0.3 0.3
v 1 0.3 0.2
v 1 0.3 0.1
v 1 0.3 -0.2
v 1 0.3 -0.3
v 1 0.3 -0.4
v 1 0.4 0.4
v 1 0.4 0.3
v 1 0.4 0.2
v 1 0.4 0.1
v 1 0.4 -0.2
v 1 0.4 -0.3
v 1 0.4 -0.4
v 1 0.4 -0.5
v 1 0.5 0.3
v 1 0.5 -0.4
v -1 0.2 0.4
v -1 0.3 0.4
v -0.9 0.3 0.4
v -0.9 0.4 0.4
v -0.8 0.1 0.4
v -0.8 0.2 0.4
v -0.8 0.3 0.4
v -0.8 0.4 0.4
v -0.8 0.5 0.4
v -0.7 0.2 0.4
v -0.7 0.3 0.4
v -0.7 0.5 0.4
v -0.7 0.6 0.4
v -0.6 0.2 0.4
v -0.6 0.3 0.4
v -0.5 0.1 0.4
v -0.5 0.2 0.4
v -0.5 0.3 0.4
v -0.5 0.4 0.4
v -0.5 0.6 0.4
v -0.5 0.8 0.4
v -0.4 0.6 0.4
v -0.4 0.7 0.4
v -0.4 0.8 0.4
v -0.4 0.9 0.4
v -0.3 0.7 0.4
v -0.3 0.8 0.4
v -0.1 0.6 0.4
v -0.1 0.8 0.4
v -0.1 0.9 0.4
v -7.45058e-009 0.6 0.4
v -7.45058e-009 0.8 0.4
v 0.6 0.1 0.4
v 0.6 0.2 0.4
v 0.6 0.3 0.4
v 0.6 0.4 0.4
v 0.7 0.2 0.4
v 0.7 0.3 0.4
v 0.8 0.2 0.4
v 0.8 0.3 0.4
v 0.8 0.5 0.4
v 0.8 0.6 0.4
v 0.9 0.1 0.4
v 0.9 0.2 0.4
v 0.9 0.4 0.4
v 0.9 0.5 0.4
v 1 0.2 0.4
v 1 0.4 0.4
v -0.9 0.4 0.3
v -0.9 0.5 0.3
v -0.8 0.4 0.3
v -0.8 0.5 0.3
v -0.8 0.6 0.3
v -0.7 0.5 0.3
v -0.7 0.6 0.3
v -0.5 0.8 0.3
v -0.5 0.9 0.3
v -0.4 0.8 0.3
v -0.4 0.9 0.3
v -0.4 1 0.3
v -0.1 0.8 0.3
v -0.1 0.9 0.3
v -0.1 1 0.3
v -7.45058e-009 0.8 0.3
v -7.45058e-009 0.9 0.3
v 0.9 0.4 0.3
v 0.9 0.5 0.3
v 1 0.4 0.3
v 1 0.5 0.3
v 0.5 0.3 -0.3
v 0.5 0.4 -0.3
v 0.9 0.3 -0.3
v 0.9 0.4 -0.3
v -0.8 0.1 -0.4
v -0.8 0.2 -0.4
v -0.5 0.1 -0.4
v -0.5 0.2 -0.4
v 0.1 0.4 -0.4
v 0.1 0.6 -0.4
v 0.2 0.3 -0.4
v 0.2 0.4 -0.4
v 0.5 0.3 -0.4
v 0.5 0.4 -0.4
v 0.6 0.1 -0.4
v 0.6 0.2 -0.4
v 0.8 0.5 -0.4
v 0.8 0.6 -0.4
v 0.9 0.1 -0.4
v 0.9 0.2 -0.4
v 0.9 0.4 -0.4
v 0.9 0.5 -0.4
v -0.8 0.1 0.3
v -0.8 0.2 0.3
v -0.5 0.1 0.3
v -0.5 0.2 0.3
v 0.1 0.4 0.3
v 0.1 0.6 0.3
v 0.2 0.3 0.3
v 0.2 0.4 0.3
v 0.5 0.3 0.3
v 0.5 0.4 0.3
v 0.6 0.1 0.3
v 0.6 0.2 0.3
v 0.8 0.5 0.3
v 0.8 0.6 0.3
v 0.9 0.1 0.3
v 0.9 0.2 0.3
v 0.9 0.4 0.3
v 0.9 0.5 0.3
v 0.5 0.3 0.2
v 0.5 0.4 0.2
v 0.9 0.3 0.2
v 0.9 0.4 0.2
v -0.9 0.4 -0.4
v -0.9 0.5 -0.4
v -0.8 0.4 -0.4
v -0.8 0.5 -0.4
v -0.8 0.6 -0.4
v -0.7 0.5 -0.4
v -0.7 0.6 -0.4
v -0.5 0.8 -0.4
v -0.5 0.9 -0.4
v -0.4 0.8 -0.4
v -0.4 0.9 -0.4
v -0.4 1 -0.4
v -0.1 0.8 -0.4
v -0.1 0.9 -0.4
v -0.1 1 -0.4
v -7.45058e-009 0.8 -0.4
v -7.45058e-009 0.9 -0.4
v 0.9 0.4 -0.4
v 0.9 0.5 -0.4
v 1 0.4 -0.4
v 1 0.5 -0.4
v -1 0.2 -0.5
v -1 0.3 -0.5
v -0.9 0.3 -0.5
v -0.9 0.4 -0.5
v -0.8 0.1 -0.5
v -0.8 0.2 -0.5
v -0.8 0.3 -0.5
v -0.8 0.4 -0.5
v -0.8 0.5 -0.5
v -0.7 0.2 -0.5
v -0.7 0.3 -0.5
v -0.7 0.5 -0.5
v -0.7 0.6 -0.5
v -0.6 0.2 -0.5
v -0.6 0.3 -0.5
v -0.5 0.1 -0.5
v -0.5 0.2 -0.5
v -0.5 0.3 -0.5
v -0.5 0.4 -0.5
v -0.5 0.6 -0.5
v -0.5 0.8 -0.5
v -0.4 0.6 -0.5
v -0.4 0.7 -0.5
v -0.4 0.8 -0.5
v -0.4 0.9 -0.5
v -0.3 0.7 -0.5
v -0.3 0.8 -0.5
v -0.1 0.6 -0.5
v -0.1 0.8 -0.5
v -0.1 0.9 -0.5
v -7.45058e-009 0.6 -0.5
v -7.45058e-009 0.8 -0.5
v 0.6 0.1 -0.5
v 0.6 0.2 -0.5
v 0.6 0.3 -0.5
v 0.6 0.4 -0.5
v 0.7 0.2 -0.5
v 0.7 0.3 -0.5
v 0.8 0.2 -0.5
v 0.8 0.3 -0.5
v 0.8 0.5 -0.5
v 0.8 0.6 -0.5
v 0.9 0.1 -0.5
v 0.9 0.2 -0.5
v 0.9 0.4 -0.5
v 0.9 0.5 -0.5
v 1 0.2 -0.5
v 1 0.4 -0.5
v -0.8 0.1 0.4
v -0.5 0.1 0.4
v 0.6 0.1 0.4
v 0.9 0.1 0.4
v -0.8 0.1 0.3
v -0.5 0.1 0.3
v 0.6 0.1 0.3
v 0.9 0.1 0.3
v -0.8 0.1 -0.4
v -0.5 0.1 -0.4
v 0.6 0.1 -0.4
v 0.9 0.1 -0.4
v -0.8 0.1 -0.5
v -0.5 0.1 -0.5
v 0.6 0.1 -0.5
v 0.9 0.1 -0.5
v -1 0.2 0.4
v -0.8 0.2 0.4
v -0.5 0.2 0.4
v 0.6 0.2 0.4
v 0.9 0.2 0.4
v 1 0.2 0.4
v -0.8 0.2 0.3
v -0.5 0.2 0.3
v 0.6 0.2 0.3
v 0.9 0.2 0.3
v -0.8 0.2 -0.4
v -0.5 0.2 -0.4
v 0.6 0.2 -0.4
v 0.9 0.2 -0.4
v -1 0.2 -0.5
v -0.8 0.2 -0.5
v -0.5 0.2 -0.5
v 0.6 0.2 -0.5
v 0.9 0.2 -0.5
v 1 0.2 -0.5
v -1 0.3 0.4
v -0.9 0.3 0.4
v 0.2 0.3 0.3
v 0.5 0.3 0.3
v -0.9 0.3 0.2
v 0.5 0.3 0.2
v 0.9 0.3 0.2
v -0.9 0.3 0.1
v 0.9 0.3 0.1
v -0.9 0.3 -0.2
v 0.9 0.3 -0.2
v -0.9 0.3 -0.3
v 0.5 0.3 -0.3
v 0.9 0.3 -0.3
v 0.2 0.3 -0.4
v 0.5 0.3 -0.4
v -1 0.3 -0.5
v -0.9 0.3 -0.5
v -0.9 0.4 0.4
v -0.8 0.4 0.4
v 0.9 0.4 0.4
v 1 0.4 0.4
v -0.9 0.4 0.3
v -0.8 0.4 0.3
v 0.1 0.4 0.3
v 0.2 0.4 0.3
v 0.5 0.4 0.3
v 0.9 0.4 0.3
v 1 0.4 0.3
v 0.5 0.4 0.2
v 0.9 0.4 0.2
v 0.5 0.4 -0.3
v 0.9 0.4 -0.3
v -0.9 0.4 -0.4
v -0.8 0.4 -0.4
v 0.1 0.4 -0.4
v 0.2 0.4 -0.4
v 0.5 0.4 -0.4
v 0.9 0.4 -0.4
v 1 0.4 -0.4
v -0.9 0.4 -0.5
v -0.8 0.4 -0.5
v 0.9 0.4 -0.5
v 1 0.4 -0.5
v -0.8 0.5 0.4
v -0.7 0.5 0.4
v 0.8 0.5 0.4
v 0.9 0.5 0.4
v -0.9 0.5 0.3
v -0.8 0.5 0.3
v -0.7 0.5 0.3
v 0.8 0.5 0.3
v 0.9 0.5 0.3
v 1 0.5 0.3
v -0.9 0.5 -0.4
v -0.8 0.5 -0.4
v -0.7 0.5 -0.4
v 0.8 0.5 -0.4
v 0.9 0.5 -0.4
v 1 0.5 -0.4
v -0.8 0.5 -0.5
v -0.7 0.5 -0.5
v 0.8 0.5 -0.5
v 0.9 0.5 -0.5
v -0.7 0.6 0.4
v -0.5 0.6 0.4
v -7.45058e-009 0.6 0.4
v 0.8 0.6 0.4
v -0.8 0.6 0.3
v -0.7 0.6 0.3
v -0.5 0.6 0.3
v 0.1 0.6 0.3
v 0.8 0.6 0.3
v -7.45058e-009 0.6 0.2
v -7.45058e-009 0.6 -0.3
v -0.8 0.6 -0.4
v -0.7 0.6 -0.4
v -0.5 0.6 -0.4
v 0.1 0.6 -0.4
v 0.8 0.6 -0.4
v -0.7 0.6 -0.5
v -0.5 0.6 -0.5
v -7.45058e-009 0.6 -0.5
v 0.8 0.6 -0.5
v -0.5 0.8 0.4
v -0.4 0.8 0.4
v -0.1 0.8 0.4
v -7.45058e-009 0.8 0.4
v -0.5 0.8 0.3
v -0.4 0.8 0.3
v -0.1 0.8 0.3
v -7.45058e-009 0.8 0.3
v -0.5 0.8 -0.4
v -0.4 0.8 -0.4
v -0.1 0.8 -0.4
v -7.45058e-009 0.8 -0.4
v -0.5 0.8 -0.5
v -0.4 0.8 -0.5
v -0.1 0.8 -0.5
v -7.45058e-009 0.8 -0.5
v -0.4 0.9 0.4
v -0.1 0.9 0.4
v -0.5 0.9 0.3
v -0.4 0.9 0.3
v -0.1 0.9 0.3
v -7.45058e-009 0.9 0.3
v -0.5 0.9 -0.4
v -0.4 0.9 -0.4
v -0.1 0.9 -0.4
v -7.45058e-009 0.9 -0.4
v -0.4 0.9 -0.5
v -0.1 0.9 -0.5
v -0.4 1 0.3
v -0.1 1 0.3
v -0.4 1 -0.4
v -0.1 1 -0.4

# faces
f 3/1/1 2/1/1 1/1/1
f 4/1/1 2/1/1 3/1/1
f 11/6/1 6/6/1 5/6/1
f 12/6/1 6/6/1 11/6/1
f 13/7/1 7/7/1 6/7/1
f 13/6/1 6/6/1 12/6/1
f 14/2/1 8/2/1 7/2/1
f 14/7/1 7/7/1 13/7/1
f 15/7/1 9/7/1 8/7/1
f 15/2/1 8/2/1 14/2/1
f 16/6/1 10/6/1 9/6/1
f 16/7/1 9/7/1 15/7/1
f 17/6/1 10/6/1 16/6/1
f 18/6/1 10/6/1 17/6/1
f 19/6/1 15/6/1 14/6/1
f 19/6/1 17/6/1 16/6/1
f 19/6/1 16/6/1 15/6/1
f 19/6/1 13/6/1 12/6/1
f 19/6/1 14/6/1 13/6/1
f 20/6/1 17/6/1 19/6/1
f 25/2/1 22/2/1 21/2/1
f 26/2/1 22/2/1 25/2/1
f 27/2/1 24/2/1 23/2/1
f 28/2/1 24/2/1 27/2/1
f 33/6/1 30/6/1 29/6/1
f 34/6/1 30/6/1 33/6/1
f 35/6/1 32/6/1 31/6/1
f 36/6/1 32/6/1 35/6/1
f 37/6/1 35/6/1 34/6/1
f 38/6/1 35/6/1 37/6/1
f 43/6/1 40/6/1 39/6/1
f 44/6/1 40/6/1 43/6/1
f 45/6/1 42/6/1 41/6/1
f 46/6/1 42/6/1 45/6/1
f 51/6/1 48/6/1 47/6/1
f 52/2/1 49/2/1 48/2/1
f 52/6/1 48/6/1 51/6/1
f 53/6/1 50/6/1 49/6/1
f 53/2/1 49/2/1 52/2/1
f 54/6/1 50/6/1 53/6/1
f 55/6/1 53/6/1 52/6/1
f 56/6/1 53/6/1 55/6/1
f 61/6/1 58/6/1 57/6/1
f 62/6/1 58/6/1 61/6/1
f 63/6/1 60/6/1 59/6/1
f 64/6/1 60/6/1 63/6/1
f 65/6/1 63/6/1 62/6/1
f 66/6/1 63/6/1 65/6/1
f 71/3/1 68/3/1 67/3/1
f 72/3/1 68/3/1 71/3/1
f 73/3/1 70/3/1 69/3/1
f 74/3/1 70/3/1 73/3/1
f 79/2/1 76/2/1 75/2/1
f 80/2/1 76/2/1 79/2/1
f 81/2/1 78/2/1 77/2/1
f 82/2/1 78/2/1 81/2/1
f 88/5/1 84/5/1 83/5/1
f 89/6/1 85/6/1 84/6/1
f 89/5/1 84/5/1 88/5/1
f 90/5/1 86/5/1 85/5/1
f 90/6/1 85/6/1 89/6/1
f 91/5/1 86/5/1 90/5/1
f 93/6/1 89/6/1 88/6/1
f 93/6/1 92/6/1 91/6/1
f 93/6/1 91/6/1 90/6/1
f 93/6/1 90/6/1 89/6/1
f 93/6/1 88/6/1 87/6/1
f 94/6/1 92/6/1 93/6/1
f 95/2/2 96/2/2 99/2/2
f 99/2/2 96/2/2 100/2/2
f 97/2/2 98/2/2 101/2/2
f 101/2/2 98/2/2 102/2/2
f 103/6/2 104/6/2 107/6/2
f 107/6/2 104/6/2 108/6/2
f 105/6/2 106/6/2 109/6/2
f 109/6/2 106/6/2 110/6/2
f 108/6/2 109/6/2 111/6/2
f 111/6/2 109/6/2 112/6/2
f 113/6/2 114/6/2 117/6/2
f 117/6/2 114/6/2 118/6/2
f 114/2/2 115/2/2 119/2/2
f 118/6/2 114/6/2 119/6/2
f 115/6/2 116/6/2 120/6/2
f 119/2/2 115/2/2 120/2/2
f 120/6/2 116/6/2 121/6/2
f 121/6/2 116/6/2 122/6/2
f 118/6/2 119/6/2 123/6/2
f 120/6/2 121/6/2 123/6/2
f 119/6/2 120/6/2 123/6/2
f 123/6/2 121/6/2 124/6/2
f 125/6/2 126/6/2 127/6/2
f 127/6/2 126/6/2 128/6/2
f 129/3/2 130/3/2 131/3/2
f 131/3/2 130/3/2 132/3/2
f 133/6/2 134/6/2 137/6/2
f 137/6/2 134/6/2 138/6/2
f 135/6/2 136/6/2 139/6/2
f 139/6/2 136/6/2 140/6/2
f 141/2/2 142/2/2 145/2/2
f 145/2/2 142/2/2 146/2/2
f 143/2/2 144/2/2 147/2/2
f 147/2/2 144/2/2 148/2/2
f 149/6/2 150/6/2 153/6/2
f 153/6/2 150/6/2 154/6/2
f 151/6/2 152/6/2 155/6/2
f 155/6/2 152/6/2 156/6/2
f 157/1/2 158/1/2 159/1/2
f 159/1/2 158/1/2 160/1/2
f 160/1/2 158/1/2 161/1/2
f 161/1/2 158/1/2 162/1/2
f 162/1/2 158/1/2 163/1/2
f 163/1/2 158/1/2 164/1/2
f 157/1/2 159/1/2 165/1/2
f 159/4/2 160/4/2 166/4/2
f 165/1/2 159/1/2 166/1/2
f 160/5/2 161/5/2 167/5/2
f 166/4/2 160/4/2 167/4/2
f 161/6/2 162/6/2 168/6/2
f 167/5/2 161/5/2 168/5/2
f 162/5/2 163/5/2 169/5/2
f 168/6/2 162/6/2 169/6/2
f 163/4/2 164/4/2 170/4/2
f 169/5/2 163/5/2 170/5/2
f 164/1/2 158/1/2 171/1/2
f 170/4/2 164/4/2 171/4/2
f 171/1/2 158/1/2 172/1/2
f 169/6/2 170/6/2 173/6/2
f 170/6/2 171/6/2 173/6/2
f 168/6/2 169/6/2 173/6/2
f 167/6/2 168/6/2 173/6/2
f 166/6/2 167/6/2 173/6/2
f 173/6/2 171/6/2 174/6/2
f 177/1/3 176/1/3 175/1/3
f 180/1/3 177/1/3 175/1/3
f 181/6/3 178/6/3 177/6/3
f 181/1/3 177/1/3 180/1/3
f 182/6/3 178/6/3 181/6/3
f 184/2/3 180/2/3 179/2/3
f 184/2/3 181/2/3 180/2/3
f 184/2/3 182/2/3 181/2/3
f 185/2/3 182/2/3 184/2/3
f 186/6/3 183/6/3 182/6/3
f 188/2/3 184/2/3 179/2/3
f 188/3/3 185/3/3 184/3/3
f 189/2/3 182/2/3 185/2/3
f 189/3/3 185/3/3 188/3/3
f 190/2/3 188/2/3 179/2/3
f 190/2/3 189/2/3 188/2/3
f 191/2/3 189/2/3 190/2/3
f 192/2/3 182/2/3 189/2/3
f 192/2/3 189/2/3 191/2/3
f 193/6/3 187/6/3 186/6/3
f 193/2/3 182/2/3 192/2/3
f 193/6/3 186/6/3 182/6/3
f 194/6/3 187/6/3 193/6/3
f 196/6/3 195/6/3 194/6/3
f 196/6/3 194/6/3 193/6/3
f 196/6/3 193/6/3 192/6/3
f 197/6/3 195/6/3 196/6/3
f 198/6/3 195/6/3 197/6/3
f 200/2/3 197/2/3 196/2/3
f 200/6/3 199/6/3 198/6/3
f 200/6/3 198/6/3 197/6/3
f 201/6/3 199/6/3 200/6/3
f 202/6/3 196/6/3 192/6/3
f 202/2/3 200/2/3 196/2/3
f 202/2/3 201/2/3 200/2/3
f 203/6/3 199/6/3 201/6/3
f 203/2/3 201/2/3 202/2/3
f 204/6/3 199/6/3 203/6/3
f 205/6/3 202/6/3 192/6/3
f 205/6/3 203/6/3 202/6/3
f 206/6/3 203/6/3 205/6/3
f 208/1/3 192/1/3 191/1/3
f 209/6/3 205/6/3 192/6/3
f 209/1/3 192/1/3 208/1/3
f 210/6/3 205/6/3 209/6/3
f 211/2/3 208/2/3 207/2/3
f 211/2/3 209/2/3 208/2/3
f 211/2/3 210/2/3 209/2/3
f 212/2/3 210/2/3 211/2/3
f 213/2/3 211/2/3 207/2/3
f 213/3/3 212/3/3 211/3/3
f 214/2/3 210/2/3 212/2/3
f 214/3/3 212/3/3 213/3/3
f 215/6/3 205/6/3 210/6/3
f 216/6/3 205/6/3 215/6/3
f 217/2/3 213/2/3 207/2/3
f 217/2/3 214/2/3 213/2/3
f 218/2/3 214/2/3 217/2/3
f 219/2/3 210/2/3 214/2/3
f 219/2/3 214/2/3 218/2/3
f 219/6/3 215/6/3 210/6/3
f 220/6/3 215/6/3 219/6/3
f 221/1/3 219/1/3 218/1/3
f 222/1/3 219/1/3 221/1/3
f 225/6/3 224/6/3 223/6/3
f 226/6/3 224/6/3 225/6/3
f 228/6/3 227/6/3 226/6/3
f 229/6/3 227/6/3 228/6/3
f 232/6/3 231/6/3 230/6/3
f 233/6/3 231/6/3 232/6/3
f 236/6/3 234/6/3 233/6/3
f 237/6/3 234/6/3 236/6/3
f 238/6/3 236/6/3 235/6/3
f 239/6/3 236/6/3 238/6/3
f 242/6/3 241/6/3 240/6/3
f 243/6/3 241/6/3 242/6/3
f 246/3/3 245/3/3 244/3/3
f 247/3/3 245/3/3 246/3/3
f 250/2/3 249/2/3 248/2/3
f 251/2/3 249/2/3 250/2/3
f 255/6/3 253/6/3 252/6/3
f 256/6/3 255/6/3 254/6/3
f 257/6/3 253/6/3 255/6/3
f 257/6/3 255/6/3 256/6/3
f 260/6/3 253/6/3 257/6/3
f 261/6/3 253/6/3 260/6/3
f 262/2/3 259/2/3 258/2/3
f 263/2/3 259/2/3 262/2/3
f 264/6/3 260/6/3 257/6/3
f 265/6/3 260/6/3 264/6/3
f 266/2/4 267/2/4 268/2/4
f 268/2/4 267/2/4 269/2/4
f 270/6/4 271/6/4 273/6/4
f 272/6/4 273/6/4 274/6/4
f 273/6/4 271/6/4 275/6/4
f 274/6/4 273/6/4 275/6/4
f 275/6/4 271/6/4 278/6/4
f 278/6/4 271/6/4 279/6/4
f 276/2/4 277/2/4 280/2/4
f 280/2/4 277/2/4 281/2/4
f 275/6/4 278/6/4 282/6/4
f 282/6/4 278/6/4 283/6/4
f 284/3/4 285/3/4 286/3/4
f 286/3/4 285/3/4 287/3/4
f 288/6/4 289/6/4 290/6/4
f 290/6/4 289/6/4 291/6/4
f 291/6/4 292/6/4 293/6/4
f 293/6/4 292/6/4 294/6/4
f 295/6/4 296/6/4 297/6/4
f 297/6/4 296/6/4 298/6/4
f 298/6/4 299/6/4 301/6/4
f 301/6/4 299/6/4 302/6/4
f 300/6/4 301/6/4 303/6/4
f 303/6/4 301/6/4 304/6/4
f 305/6/4 306/6/4 307/6/4
f 307/6/4 306/6/4 308/6/4
f 309/1/4 310/1/4 311/1/4
f 309/1/4 311/1/4 314/1/4
f 311/6/4 312/6/4 315/6/4
f 314/1/4 311/1/4 315/1/4
f 315/6/4 312/6/4 316/6/4
f 313/2/4 314/2/4 318/2/4
f 314/2/4 315/2/4 318/2/4
f 315/2/4 316/2/4 318/2/4
f 318/2/4 316/2/4 319/2/4
f 316/6/4 317/6/4 320/6/4
f 313/2/4 318/2/4 322/2/4
f 318/3/4 319/3/4 322/3/4
f 319/2/4 316/2/4 323/2/4
f 322/3/4 319/3/4 323/3/4
f 313/2/4 322/2/4 324/2/4
f 322/2/4 323/2/4 324/2/4
f 324/2/4 323/2/4 325/2/4
f 323/2/4 316/2/4 326/2/4
f 325/2/4 323/2/4 326/2/4
f 320/6/4 321/6/4 327/6/4
f 326/2/4 316/2/4 327/2/4
f 316/6/4 320/6/4 327/6/4
f 327/6/4 321/6/4 328/6/4
f 328/6/4 329/6/4 330/6/4
f 327/6/4 328/6/4 330/6/4
f 326/6/4 327/6/4 330/6/4
f 330/6/4 329/6/4 331/6/4
f 331/6/4 329/6/4 332/6/4
f 330/2/4 331/2/4 334/2/4
f 332/6/4 333/6/4 334/6/4
f 331/6/4 332/6/4 334/6/4
f 334/6/4 333/6/4 335/6/4
f 326/6/4 330/6/4 336/6/4
f 330/2/4 334/2/4 336/2/4
f 334/2/4 335/2/4 336/2/4
f 335/6/4 333/6/4 337/6/4
f 336/2/4 335/2/4 337/2/4
f 337/6/4 333/6/4 338/6/4
f 326/6/4 336/6/4 339/6/4
f 336/6/4 337/6/4 339/6/4
f 339/6/4 337/6/4 340/6/4
f 325/1/4 326/1/4 342/1/4
f 326/6/4 339/6/4 343/6/4
f 342/1/4 326/1/4 343/1/4
f 343/6/4 339/6/4 344/6/4
f 341/2/4 342/2/4 345/2/4
f 342/2/4 343/2/4 345/2/4
f 343/2/4 344/2/4 345/2/4
f 345/2/4 344/2/4 346/2/4
f 341/2/4 345/2/4 347/2/4
f 345/3/4 346/3/4 347/3/4
f 346/2/4 344/2/4 348/2/4
f 347/3/4 346/3/4 348/3/4
f 344/6/4 339/6/4 349/6/4
f 349/6/4 339/6/4 350/6/4
f 341/2/4 347/2/4 351/2/4
f 347/2/4 348/2/4 351/2/4
f 351/2/4 348/2/4 352/2/4
f 348/2/4 344/2/4 353/2/4
f 352/2/4 348/2/4 353/2/4
f 344/6/4 349/6/4 353/6/4
f 353/6/4 349/6/4 354/6/4
f 352/1/4 353/1/4 355/1/4
f 355/1/4 353/1/4 356/1/4
f 361/2/5 358/2/5 357/2/5
f 362/2/5 358/2/5 361/2/5
f 363/2/5 360/2/5 359/2/5
f 364/2/5 360/2/5 363/2/5
f 369/2/5 366/2/5 365/2/5
f 370/2/5 366/2/5 369/2/5
f 371/2/5 368/2/5 367/2/5
f 372/2/5 368/2/5 371/2/5
f 379/1/5 374/1/5 373/1/5
f 380/1/5 376/1/5 375/1/5
f 381/1/5 376/1/5 380/1/5
f 382/1/5 378/1/5 377/1/5
f 383/1/5 381/1/5 380/1/5
f 383/1/5 382/1/5 381/1/5
f 383/1/5 379/1/5 373/1/5
f 383/1/5 380/1/5 379/1/5
f 384/1/5 382/1/5 383/1/5
f 385/1/5 382/1/5 384/1/5
f 386/1/5 378/1/5 382/1/5
f 386/1/5 382/1/5 385/1/5
f 387/1/5 383/1/5 373/1/5
f 388/1/5 383/1/5 387/1/5
f 389/1/5 385/1/5 384/1/5
f 390/1/5 385/1/5 389/1/5
f 391/1/5 378/1/5 386/1/5
f 392/1/5 378/1/5 391/1/5
f 393/1/6 394/1/6 397/1/6
f 395/1/6 396/1/6 398/1/6
f 393/1/6 397/1/6 400/1/6
f 398/1/6 399/1/6 401/1/6
f 393/1/6 400/1/6 402/1/6
f 398/1/6 401/1/6 403/1/6
f 393/1/6 402/1/6 404/1/6
f 395/1/6 398/1/6 405/1/6
f 398/1/6 403/1/6 405/1/6
f 405/1/6 403/1/6 406/1/6
f 395/1/6 405/1/6 407/1/6
f 407/1/6 405/1/6 408/1/6
f 393/1/6 404/1/6 409/1/6
f 409/1/6 404/1/6 410/1/6
f 411/6/6 412/6/6 415/6/6
f 415/6/6 412/6/6 416/6/6
f 413/1/6 414/1/6 420/1/6
f 420/1/6 414/1/6 421/1/6
f 419/3/6 420/3/6 422/3/6
f 422/3/6 420/3/6 423/3/6
f 417/3/6 418/3/6 428/3/6
f 428/3/6 418/3/6 429/3/6
f 424/3/6 425/3/6 430/3/6
f 430/3/6 425/3/6 431/3/6
f 426/6/6 427/6/6 433/6/6
f 433/6/6 427/6/6 434/6/6
f 431/1/6 432/1/6 435/1/6
f 435/1/6 432/1/6 436/1/6
f 437/6/6 438/6/6 442/6/6
f 442/6/6 438/6/6 443/6/6
f 439/6/6 440/6/6 444/6/6
f 444/6/6 440/6/6 445/6/6
f 441/6/6 442/6/6 447/6/6
f 447/6/6 442/6/6 448/6/6
f 445/6/6 446/6/6 451/6/6
f 451/6/6 446/6/6 452/6/6
f 448/6/6 449/6/6 453/6/6
f 453/6/6 449/6/6 454/6/6
f 450/6/6 451/6/6 455/6/6
f 455/6/6 451/6/6 456/6/6
f 457/6/6 458/6/6 462/6/6
f 462/6/6 458/6/6 463/6/6
f 459/6/6 460/6/6 464/6/6
f 464/6/6 460/6/6 465/6/6
f 459/6/6 464/6/6 466/6/6
f 466/6/6 464/6/6 467/6/6
f 462/6/6 463/6/6 468/6/6
f 461/6/6 462/6/6 468/6/6
f 468/6/6 463/6/6 469/6/6
f 469/6/6 463/6/6 470/6/6
f 467/6/6 464/6/6 471/6/6
f 469/6/6 470/6/6 473/6/6
f 473/6/6 470/6/6 474/6/6
f 471/6/6 472/6/6 475/6/6
f 467/6/6 471/6/6 475/6/6
f 475/6/6 472/6/6 476/6/6
f 477/6/6 478/6/6 481/6/6
f 481/6/6 478/6/6 482/6/6
f 479/6/6 480/6/6 483/6/6
f 483/6/6 480/6/6 484/6/6
f 485/6/6 486/6/6 489/6/6
f 489/6/6 486/6/6 490/6/6
f 487/6/6 488/6/6 491/6/6
f 491/6/6 488/6/6 492/6/6
f 493/6/6 494/6/6 496/6/6
f 496/6/6 494/6/6 497/6/6
f 495/6/6 496/6/6 499/6/6
f 499/6/6 496/6/6 500/6/6
f 497/6/6 498/6/6 501/6/6
f 501/6/6 498/6/6 502/6/6
f 500/6/6 501/6/6 503/6/6
f 503/6/6 501/6/6 504/6/6
f 505/6/6 506/6/6 507/6/6
f 507/6/6 506/6/6 508/6/6
