# MagicaVoxel @ Ephtracy

# group
o 

# material
mtllib CamionVerde.mtl
usemtl palette

# normals
vn -1 0 0
vn 1 0 0
vn 0 0 1
vn 0 0 -1
vn 0 -1 0
vn 0 1 0

# texcoords
vt 0.880859 0.5
vt 0.884766 0.5
vt 0.888672 0.5
vt 0.908203 0.5
vt 0.912109 0.5
vt 0.916016 0.5
vt 0.919922 0.5
vt 0.978516 0.5
vt 0.982422 0.5
vt 0.986328 0.5

# verts
v -1 0.2 0.4
v -1 0.2 -0.5
v -1 0.3 0.4
v -1 0.3 -0.5
v -0.9 0.3 0.4
v -0.9 0.3 0.2
v -0.9 0.3 0.1
v -0.9 0.3 -0.2
v -0.9 0.3 -0.3
v -0.9 0.3 -0.5
v -0.9 0.4 0.4
v -0.9 0.4 0.3
v -0.9 0.4 0.2
v -0.9 0.4 0.1
v -0.9 0.4 -0.2
v -0.9 0.4 -0.3
v -0.9 0.4 -0.4
v -0.9 0.4 -0.5
v -0.9 0.5 0.3
v -0.9 0.5 -0.4
v -0.8 0.1 0.4
v -0.8 0.1 0.3
v -0.8 0.1 -0.4
v -0.8 0.1 -0.5
v -0.8 0.2 0.4
v -0.8 0.2 0.3
v -0.8 0.2 -0.4
v -0.8 0.2 -0.5
v -0.8 0.4 0.4
v -0.8 0.4 0.3
v -0.8 0.4 -0.4
v -0.8 0.4 -0.5
v -0.8 0.5 0.4
v -0.8 0.5 0.3
v -0.8 0.5 -0.4
v -0.8 0.5 -0.5
v -0.8 0.6 0.3
v -0.8 0.6 -0.4
v -0.7 0.5 0.4
v -0.7 0.5 0.3
v -0.7 0.5 -0.4
v -0.7 0.5 -0.5
v -0.7 0.6 0.4
v -0.7 0.6 0.3
v -0.7 0.6 -0.4
v -0.7 0.6 -0.5
v -0.5 0.6 0.4
v -0.5 0.6 0.3
v -0.5 0.6 -0.4
v -0.5 0.6 -0.5
v -0.5 0.8 0.4
v -0.5 0.8 0.3
v -0.5 0.8 -0.4
v -0.5 0.8 -0.5
v -0.5 0.9 0.3
v -0.5 0.9 -0.4
v -0.4 0.8 0.4
v -0.4 0.8 0.3
v -0.4 0.8 -0.4
v -0.4 0.8 -0.5
v -0.4 0.9 0.4
v -0.4 0.9 0.3
v -0.4 0.9 -0.4
v -0.4 0.9 -0.5
v -0.4 1 0.3
v -0.4 1 -0.4
v 0.2 0.4 -7.45058e-009
v 0.2 0.4 -0.3
v 0.2 0.6 -7.45058e-009
v 0.2 0.6 -0.3
v 0.5 0.3 0.3
v 0.5 0.3 0.2
v 0.5 0.3 -7.45058e-009
v 0.5 0.3 -0.3
v 0.5 0.3 -0.4
v 0.5 0.4 0.3
v 0.5 0.4 0.2
v 0.5 0.4 -7.45058e-009
v 0.5 0.4 -0.3
v 0.5 0.4 -0.4
v 0.5 0.5 0.2
v 0.5 0.5 -7.45058e-009
v 0.6 0.1 0.4
v 0.6 0.1 0.3
v 0.6 0.1 -0.4
v 0.6 0.1 -0.5
v 0.6 0.2 0.4
v 0.6 0.2 0.3
v 0.6 0.2 -0.4
v 0.6 0.2 -0.5
v 0.9 0.3 0.2
v 0.9 0.3 0.1
v 0.9 0.3 -0.2
v 0.9 0.3 -0.3
v 0.9 0.4 0.3
v 0.9 0.4 0.2
v 0.9 0.4 0.1
v 0.9 0.4 -0.2
v 0.9 0.4 -0.3
v 0.9 0.4 -0.4
v 0.9 0.5 0.3
v 0.9 0.5 -0.4
v -0.5 0.1 0.4
v -0.5 0.1 0.3
v -0.5 0.1 -0.4
v -0.5 0.1 -0.5
v -0.5 0.2 0.4
v -0.5 0.2 0.3
v -0.5 0.2 -0.4
v -0.5 0.2 -0.5
v -0.1 0.8 0.4
v -0.1 0.8 0.3
v -0.1 0.8 -0.4
v -0.1 0.8 -0.5
v -0.1 0.9 0.4
v -0.1 0.9 0.3
v -0.1 0.9 -0.4
v -0.1 0.9 -0.5
v -0.1 1 0.3
v -0.1 1 -0.4
v -7.45058e-009 0.6 0.4
v -7.45058e-009 0.6 0.2
v -7.45058e-009 0.6 -0.3
v -7.45058e-009 0.6 -0.5
v -7.45058e-009 0.8 0.4
v -7.45058e-009 0.8 0.3
v -7.45058e-009 0.8 0.2
v -7.45058e-009 0.8 -0.3
v -7.45058e-009 0.8 -0.4
v -7.45058e-009 0.8 -0.5
v -7.45058e-009 0.9 0.3
v -7.45058e-009 0.9 -0.4
v 0.1 0.4 0.3
v 0.1 0.4 -0.4
v 0.1 0.6 0.3
v 0.1 0.6 -0.4
v 0.2 0.3 0.3
v 0.2 0.3 -7.45058e-009
v 0.2 0.3 -0.3
v 0.2 0.3 -0.4
v 0.2 0.4 0.3
v 0.2 0.4 -7.45058e-009
v 0.2 0.4 -0.3
v 0.2 0.4 -0.4
v 0.5 0.3 -7.45058e-009
v 0.5 0.3 -0.3
v 0.5 0.4 -7.45058e-009
v 0.5 0.4 -0.3
v 0.5 0.5 -7.45058e-009
v 0.5 0.6 -7.45058e-009
v 0.5 0.6 -0.3
v 0.7 0.3 0.2
v 0.7 0.3 -7.45058e-009
v 0.7 0.4 0.2
v 0.7 0.4 -7.45058e-009
v 0.7 0.5 0.2
v 0.7 0.5 -7.45058e-009
v 0.8 0.5 0.4
v 0.8 0.5 0.3
v 0.8 0.5 -0.4
v 0.8 0.5 -0.5
v 0.8 0.6 0.4
v 0.8 0.6 0.3
v 0.8 0.6 -0.4
v 0.8 0.6 -0.5
v 0.9 0.1 0.4
v 0.9 0.1 0.3
v 0.9 0.1 -0.4
v 0.9 0.1 -0.5
v 0.9 0.2 0.4
v 0.9 0.2 0.3
v 0.9 0.2 -0.4
v 0.9 0.2 -0.5
v 0.9 0.4 0.4
v 0.9 0.4 0.3
v 0.9 0.4 -0.4
v 0.9 0.4 -0.5
v 0.9 0.5 0.4
v 0.9 0.5 0.3
v 0.9 0.5 -0.4
v 0.9 0.5 -0.5
v 1 0.2 0.4
v 1 0.2 -0.5
v 1 0.3 0.3
v 1 0.3 0.2
v 1 0.3 0.1
v 1 0.3 -0.2
v 1 0.3 -0.3
v 1 0.3 -0.4
v 1 0.4 0.4
v 1 0.4 0.3
v 1 0.4 0.2
v 1 0.4 0.1
v 1 0.4 -0.2
v 1 0.4 -0.3
v 1 0.4 -0.4
v 1 0.4 -0.5
v 1 0.5 0.3
v 1 0.5 -0.4
v -1 0.2 0.4
v -1 0.3 0.4
v -0.9 0.3 0.4
v -0.9 0.4 0.4
v -0.8 0.1 0.4
v -0.8 0.2 0.4
v -0.8 0.3 0.4
v -0.8 0.4 0.4
v -0.8 0.5 0.4
v -0.7 0.2 0.4
v -0.7 0.3 0.4
v -0.7 0.5 0.4
v -0.7 0.6 0.4
v -0.6 0.2 0.4
v -0.6 0.3 0.4
v -0.5 0.1 0.4
v -0.5 0.2 0.4
v -0.5 0.3 0.4
v -0.5 0.4 0.4
v -0.5 0.6 0.4
v -0.5 0.8 0.4
v -0.4 0.6 0.4
v -0.4 0.7 0.4
v -0.4 0.8 0.4
v -0.4 0.9 0.4
v -0.3 0.7 0.4
v -0.3 0.8 0.4
v -0.1 0.6 0.4
v -0.1 0.8 0.4
v -0.1 0.9 0.4
v -7.45058e-009 0.6 0.4
v -7.45058e-009 0.8 0.4
v 0.6 0.1 0.4
v 0.6 0.2 0.4
v 0.6 0.3 0.4
v 0.6 0.4 0.4
v 0.7 0.2 0.4
v 0.7 0.3 0.4
v 0.8 0.2 0.4
v 0.8 0.3 0.4
v 0.8 0.5 0.4
v 0.8 0.6 0.4
v 0.9 0.1 0.4
v 0.9 0.2 0.4
v 0.9 0.4 0.4
v 0.9 0.5 0.4
v 1 0.2 0.4
v 1 0.4 0.4
v -0.9 0.4 0.3
v -0.9 0.5 0.3
v -0.8 0.4 0.3
v -0.8 0.5 0.3
v -0.8 0.6 0.3
v -0.7 0.5 0.3
v -0.7 0.6 0.3
v -0.5 0.8 0.3
v -0.5 0.9 0.3
v -0.4 0.8 0.3
v -0.4 0.9 0.3
v -0.4 1 0.3
v -0.1 0.8 0.3
v -0.1 0.9 0.3
v -0.1 1 0.3
v -7.45058e-009 0.8 0.3
v -7.45058e-009 0.9 0.3
v 0.9 0.4 0.3
v 0.9 0.5 0.3
v 1 0.4 0.3
v 1 0.5 0.3
v 0.5 0.4 0.2
v 0.5 0.5 0.2
v 0.7 0.4 0.2
v 0.7 0.5 0.2
v 0.2 0.3 -7.45058e-009
v 0.2 0.4 -7.45058e-009
v 0.2 0.6 -7.45058e-009
v 0.5 0.3 -7.45058e-009
v 0.5 0.4 -7.45058e-009
v 0.5 0.5 -7.45058e-009
v 0.5 0.6 -7.45058e-009
v 0.5 0.3 -0.3
v 0.5 0.4 -0.3
v 0.9 0.3 -0.3
v 0.9 0.4 -0.3
v -0.8 0.1 -0.4
v -0.8 0.2 -0.4
v -0.5 0.1 -0.4
v -0.5 0.2 -0.4
v 0.1 0.4 -0.4
v 0.1 0.6 -0.4
v 0.2 0.3 -0.4
v 0.2 0.4 -0.4
v 0.5 0.3 -0.4
v 0.5 0.4 -0.4
v 0.6 0.1 -0.4
v 0.6 0.2 -0.4
v 0.8 0.5 -0.4
v 0.8 0.6 -0.4
v 0.9 0.1 -0.4
v 0.9 0.2 -0.4
v 0.9 0.4 -0.4
v 0.9 0.5 -0.4
v -0.8 0.1 0.3
v -0.8 0.2 0.3
v -0.5 0.1 0.3
v -0.5 0.2 0.3
v 0.1 0.4 0.3
v 0.1 0.6 0.3
v 0.2 0.3 0.3
v 0.2 0.4 0.3
v 0.5 0.3 0.3
v 0.5 0.4 0.3
v 0.6 0.1 0.3
v 0.6 0.2 0.3
v 0.8 0.5 0.3
v 0.8 0.6 0.3
v 0.9 0.1 0.3
v 0.9 0.2 0.3
v 0.9 0.4 0.3
v 0.9 0.5 0.3
v 0.7 0.3 0.2
v 0.7 0.4 0.2
v 0.9 0.3 0.2
v 0.9 0.4 0.2
v 0.5 0.3 -7.45058e-009
v 0.5 0.4 -7.45058e-009
v 0.5 0.5 -7.45058e-009
v 0.7 0.3 -7.45058e-009
v 0.7 0.4 -7.45058e-009
v 0.7 0.5 -7.45058e-009
v 0.2 0.3 -0.3
v 0.2 0.4 -0.3
v 0.2 0.6 -0.3
v 0.5 0.3 -0.3
v 0.5 0.4 -0.3
v 0.5 0.6 -0.3
v -0.9 0.4 -0.4
v -0.9 0.5 -0.4
v -0.8 0.4 -0.4
v -0.8 0.5 -0.4
v -0.8 0.6 -0.4
v -0.7 0.5 -0.4
v -0.7 0.6 -0.4
v -0.5 0.8 -0.4
v -0.5 0.9 -0.4
v -0.4 0.8 -0.4
v -0.4 0.9 -0.4
v -0.4 1 -0.4
v -0.1 0.8 -0.4
v -0.1 0.9 -0.4
v -0.1 1 -0.4
v -7.45058e-009 0.8 -0.4
v -7.45058e-009 0.9 -0.4
v 0.9 0.4 -0.4
v 0.9 0.5 -0.4
v 1 0.4 -0.4
v 1 0.5 -0.4
v -1 0.2 -0.5
v -1 0.3 -0.5
v -0.9 0.3 -0.5
v -0.9 0.4 -0.5
v -0.8 0.1 -0.5
v -0.8 0.2 -0.5
v -0.8 0.3 -0.5
v -0.8 0.4 -0.5
v -0.8 0.5 -0.5
v -0.7 0.2 -0.5
v -0.7 0.3 -0.5
v -0.7 0.5 -0.5
v -0.7 0.6 -0.5
v -0.6 0.2 -0.5
v -0.6 0.3 -0.5
v -0.5 0.1 -0.5
v -0.5 0.2 -0.5
v -0.5 0.3 -0.5
v -0.5 0.4 -0.5
v -0.5 0.6 -0.5
v -0.5 0.8 -0.5
v -0.4 0.6 -0.5
v -0.4 0.7 -0.5
v -0.4 0.8 -0.5
v -0.4 0.9 -0.5
v -0.3 0.7 -0.5
v -0.3 0.8 -0.5
v -0.1 0.6 -0.5
v -0.1 0.8 -0.5
v -0.1 0.9 -0.5
v -7.45058e-009 0.6 -0.5
v -7.45058e-009 0.8 -0.5
v 0.6 0.1 -0.5
v 0.6 0.2 -0.5
v 0.6 0.3 -0.5
v 0.6 0.4 -0.5
v 0.7 0.2 -0.5
v 0.7 0.3 -0.5
v 0.8 0.2 -0.5
v 0.8 0.3 -0.5
v 0.8 0.5 -0.5
v 0.8 0.6 -0.5
v 0.9 0.1 -0.5
v 0.9 0.2 -0.5
v 0.9 0.4 -0.5
v 0.9 0.5 -0.5
v 1 0.2 -0.5
v 1 0.4 -0.5
v -0.8 0.1 0.4
v -0.5 0.1 0.4
v 0.6 0.1 0.4
v 0.9 0.1 0.4
v -0.8 0.1 0.3
v -0.5 0.1 0.3
v 0.6 0.1 0.3
v 0.9 0.1 0.3
v -0.8 0.1 -0.4
v -0.5 0.1 -0.4
v 0.6 0.1 -0.4
v 0.9 0.1 -0.4
v -0.8 0.1 -0.5
v -0.5 0.1 -0.5
v 0.6 0.1 -0.5
v 0.9 0.1 -0.5
v -1 0.2 0.4
v -0.8 0.2 0.4
v -0.5 0.2 0.4
v 0.6 0.2 0.4
v 0.9 0.2 0.4
v 1 0.2 0.4
v -0.8 0.2 0.3
v -0.5 0.2 0.3
v 0.6 0.2 0.3
v 0.9 0.2 0.3
v -0.8 0.2 -0.4
v -0.5 0.2 -0.4
v 0.6 0.2 -0.4
v 0.9 0.2 -0.4
v -1 0.2 -0.5
v -0.8 0.2 -0.5
v -0.5 0.2 -0.5
v 0.6 0.2 -0.5
v 0.9 0.2 -0.5
v 1 0.2 -0.5
v -1 0.3 0.4
v -0.9 0.3 0.4
v 0.2 0.3 0.3
v 0.5 0.3 0.3
v -0.9 0.3 0.2
v 0.5 0.3 0.2
v 0.7 0.3 0.2
v 0.9 0.3 0.2
v -0.9 0.3 0.1
v 0.9 0.3 0.1
v 0.2 0.3 -7.45058e-009
v 0.5 0.3 -7.45058e-009
v 0.7 0.3 -7.45058e-009
v -0.9 0.3 -0.2
v 0.9 0.3 -0.2
v -0.9 0.3 -0.3
v 0.2 0.3 -0.3
v 0.5 0.3 -0.3
v 0.9 0.3 -0.3
v 0.2 0.3 -0.4
v 0.5 0.3 -0.4
v -1 0.3 -0.5
v -0.9 0.3 -0.5
v -0.9 0.4 0.4
v -0.8 0.4 0.4
v 0.9 0.4 0.4
v 1 0.4 0.4
v -0.9 0.4 0.3
v -0.8 0.4 0.3
v 0.1 0.4 0.3
v 0.2 0.4 0.3
v 0.5 0.4 0.3
v 0.9 0.4 0.3
v 1 0.4 0.3
v 0.5 0.4 0.2
v 0.7 0.4 0.2
v 0.9 0.4 0.2
v 0.2 0.4 -7.45058e-009
v 0.2 0.4 -0.3
v 0.5 0.4 -0.3
v 0.9 0.4 -0.3
v -0.9 0.4 -0.4
v -0.8 0.4 -0.4
v 0.1 0.4 -0.4
v 0.2 0.4 -0.4
v 0.5 0.4 -0.4
v 0.9 0.4 -0.4
v 1 0.4 -0.4
v -0.9 0.4 -0.5
v -0.8 0.4 -0.5
v 0.9 0.4 -0.5
v 1 0.4 -0.5
v -0.8 0.5 0.4
v -0.7 0.5 0.4
v 0.8 0.5 0.4
v 0.9 0.5 0.4
v -0.9 0.5 0.3
v -0.8 0.5 0.3
v -0.7 0.5 0.3
v 0.8 0.5 0.3
v 0.9 0.5 0.3
v 1 0.5 0.3
v 0.5 0.5 0.2
v 0.7 0.5 0.2
v 0.5 0.5 -7.45058e-009
v 0.7 0.5 -7.45058e-009
v -0.9 0.5 -0.4
v -0.8 0.5 -0.4
v -0.7 0.5 -0.4
v 0.8 0.5 -0.4
v 0.9 0.5 -0.4
v 1 0.5 -0.4
v -0.8 0.5 -0.5
v -0.7 0.5 -0.5
v 0.8 0.5 -0.5
v 0.9 0.5 -0.5
v -0.7 0.6 0.4
v -0.5 0.6 0.4
v -7.45058e-009 0.6 0.4
v 0.8 0.6 0.4
v -0.8 0.6 0.3
v -0.7 0.6 0.3
v -0.5 0.6 0.3
v 0.1 0.6 0.3
v 0.8 0.6 0.3
v -7.45058e-009 0.6 0.2
v 0.2 0.6 -7.45058e-009
v 0.5 0.6 -7.45058e-009
v -7.45058e-009 0.6 -0.3
v 0.2 0.6 -0.3
v 0.5 0.6 -0.3
v -0.8 0.6 -0.4
v -0.7 0.6 -0.4
v -0.5 0.6 -0.4
v 0.1 0.6 -0.4
v 0.8 0.6 -0.4
v -0.7 0.6 -0.5
v -0.5 0.6 -0.5
v -7.45058e-009 0.6 -0.5
v 0.8 0.6 -0.5
v -0.5 0.8 0.4
v -0.4 0.8 0.4
v -0.1 0.8 0.4
v -7.45058e-009 0.8 0.4
v -0.5 0.8 0.3
v -0.4 0.8 0.3
v -0.1 0.8 0.3
v -7.45058e-009 0.8 0.3
v -0.5 0.8 -0.4
v -0.4 0.8 -0.4
v -0.1 0.8 -0.4
v -7.45058e-009 0.8 -0.4
v -0.5 0.8 -0.5
v -0.4 0.8 -0.5
v -0.1 0.8 -0.5
v -7.45058e-009 0.8 -0.5
v -0.4 0.9 0.4
v -0.1 0.9 0.4
v -0.5 0.9 0.3
v -0.4 0.9 0.3
v -0.1 0.9 0.3
v -7.45058e-009 0.9 0.3
v -0.5 0.9 -0.4
v -0.4 0.9 -0.4
v -0.1 0.9 -0.4
v -7.45058e-009 0.9 -0.4
v -0.4 0.9 -0.5
v -0.1 0.9 -0.5
v -0.4 1 0.3
v -0.1 1 0.3
v -0.4 1 -0.4
v -0.1 1 -0.4

# faces
f 3/2/1 2/2/1 1/2/1
f 4/2/1 2/2/1 3/2/1
f 11/1/1 6/1/1 5/1/1
f 12/1/1 6/1/1 11/1/1
f 13/10/1 7/10/1 6/10/1
f 13/1/1 6/1/1 12/1/1
f 14/4/1 8/4/1 7/4/1
f 14/10/1 7/10/1 13/10/1
f 15/10/1 9/10/1 8/10/1
f 15/4/1 8/4/1 14/4/1
f 16/1/1 10/1/1 9/1/1
f 16/10/1 9/10/1 15/10/1
f 17/1/1 10/1/1 16/1/1
f 18/1/1 10/1/1 17/1/1
f 19/1/1 15/1/1 14/1/1
f 19/1/1 17/1/1 16/1/1
f 19/1/1 16/1/1 15/1/1
f 19/1/1 13/1/1 12/1/1
f 19/1/1 14/1/1 13/1/1
f 20/1/1 17/1/1 19/1/1
f 25/4/1 22/4/1 21/4/1
f 26/4/1 22/4/1 25/4/1
f 27/4/1 24/4/1 23/4/1
f 28/4/1 24/4/1 27/4/1
f 33/1/1 30/1/1 29/1/1
f 34/1/1 30/1/1 33/1/1
f 35/1/1 32/1/1 31/1/1
f 36/1/1 32/1/1 35/1/1
f 37/1/1 35/1/1 34/1/1
f 38/1/1 35/1/1 37/1/1
f 43/1/1 40/1/1 39/1/1
f 44/1/1 40/1/1 43/1/1
f 45/1/1 42/1/1 41/1/1
f 46/1/1 42/1/1 45/1/1
f 51/1/1 48/1/1 47/1/1
f 52/4/1 49/4/1 48/4/1
f 52/1/1 48/1/1 51/1/1
f 53/1/1 50/1/1 49/1/1
f 53/4/1 49/4/1 52/4/1
f 54/1/1 50/1/1 53/1/1
f 55/1/1 53/1/1 52/1/1
f 56/1/1 53/1/1 55/1/1
f 61/1/1 58/1/1 57/1/1
f 62/1/1 58/1/1 61/1/1
f 63/1/1 60/1/1 59/1/1
f 64/1/1 60/1/1 63/1/1
f 65/1/1 63/1/1 62/1/1
f 66/1/1 63/1/1 65/1/1
f 69/9/1 68/9/1 67/9/1
f 70/9/1 68/9/1 69/9/1
f 76/3/1 72/3/1 71/3/1
f 77/8/1 73/8/1 72/8/1
f 77/3/1 72/3/1 76/3/1
f 78/8/1 73/8/1 77/8/1
f 79/3/1 75/3/1 74/3/1
f 80/3/1 75/3/1 79/3/1
f 81/9/1 78/9/1 77/9/1
f 82/9/1 78/9/1 81/9/1
f 87/4/1 84/4/1 83/4/1
f 88/4/1 84/4/1 87/4/1
f 89/4/1 86/4/1 85/4/1
f 90/4/1 86/4/1 89/4/1
f 96/7/1 92/7/1 91/7/1
f 97/1/1 93/1/1 92/1/1
f 97/7/1 92/7/1 96/7/1
f 98/7/1 94/7/1 93/7/1
f 98/1/1 93/1/1 97/1/1
f 99/7/1 94/7/1 98/7/1
f 101/1/1 97/1/1 96/1/1
f 101/1/1 100/1/1 99/1/1
f 101/1/1 99/1/1 98/1/1
f 101/1/1 98/1/1 97/1/1
f 101/1/1 96/1/1 95/1/1
f 102/1/1 100/1/1 101/1/1
f 103/4/2 104/4/2 107/4/2
f 107/4/2 104/4/2 108/4/2
f 105/4/2 106/4/2 109/4/2
f 109/4/2 106/4/2 110/4/2
f 111/1/2 112/1/2 115/1/2
f 115/1/2 112/1/2 116/1/2
f 113/1/2 114/1/2 117/1/2
f 117/1/2 114/1/2 118/1/2
f 116/1/2 117/1/2 119/1/2
f 119/1/2 117/1/2 120/1/2
f 121/1/2 122/1/2 125/1/2
f 125/1/2 122/1/2 126/1/2
f 122/4/2 123/4/2 127/4/2
f 126/1/2 122/1/2 127/1/2
f 123/1/2 124/1/2 128/1/2
f 127/4/2 123/4/2 128/4/2
f 128/1/2 124/1/2 129/1/2
f 129/1/2 124/1/2 130/1/2
f 126/1/2 127/1/2 131/1/2
f 128/1/2 129/1/2 131/1/2
f 127/1/2 128/1/2 131/1/2
f 131/1/2 129/1/2 132/1/2
f 133/1/2 134/1/2 135/1/2
f 135/1/2 134/1/2 136/1/2
f 137/3/2 138/3/2 141/3/2
f 141/3/2 138/3/2 142/3/2
f 139/3/2 140/3/2 143/3/2
f 143/3/2 140/3/2 144/3/2
f 145/8/2 146/8/2 147/8/2
f 147/8/2 146/8/2 148/8/2
f 147/9/2 148/9/2 149/9/2
f 149/9/2 148/9/2 150/9/2
f 150/9/2 148/9/2 151/9/2
f 152/8/2 153/8/2 154/8/2
f 154/8/2 153/8/2 155/8/2
f 154/9/2 155/9/2 156/9/2
f 156/9/2 155/9/2 157/9/2
f 158/1/2 159/1/2 162/1/2
f 162/1/2 159/1/2 163/1/2
f 160/1/2 161/1/2 164/1/2
f 164/1/2 161/1/2 165/1/2
f 166/4/2 167/4/2 170/4/2
f 170/4/2 167/4/2 171/4/2
f 168/4/2 169/4/2 172/4/2
f 172/4/2 169/4/2 173/4/2
f 174/1/2 175/1/2 178/1/2
f 178/1/2 175/1/2 179/1/2
f 176/1/2 177/1/2 180/1/2
f 180/1/2 177/1/2 181/1/2
f 182/2/2 183/2/2 184/2/2
f 184/2/2 183/2/2 185/2/2
f 185/2/2 183/2/2 186/2/2
f 186/2/2 183/2/2 187/2/2
f 187/2/2 183/2/2 188/2/2
f 188/2/2 183/2/2 189/2/2
f 182/2/2 184/2/2 190/2/2
f 184/6/2 185/6/2 191/6/2
f 190/2/2 184/2/2 191/2/2
f 185/7/2 186/7/2 192/7/2
f 191/6/2 185/6/2 192/6/2
f 186/1/2 187/1/2 193/1/2
f 192/7/2 186/7/2 193/7/2
f 187/7/2 188/7/2 194/7/2
f 193/1/2 187/1/2 194/1/2
f 188/6/2 189/6/2 195/6/2
f 194/7/2 188/7/2 195/7/2
f 189/2/2 183/2/2 196/2/2
f 195/6/2 189/6/2 196/6/2
f 196/2/2 183/2/2 197/2/2
f 194/1/2 195/1/2 198/1/2
f 195/1/2 196/1/2 198/1/2
f 193/1/2 194/1/2 198/1/2
f 192/1/2 193/1/2 198/1/2
f 191/1/2 192/1/2 198/1/2
f 198/1/2 196/1/2 199/1/2
f 202/2/3 201/2/3 200/2/3
f 205/2/3 202/2/3 200/2/3
f 206/1/3 203/1/3 202/1/3
f 206/2/3 202/2/3 205/2/3
f 207/1/3 203/1/3 206/1/3
f 209/4/3 205/4/3 204/4/3
f 209/4/3 206/4/3 205/4/3
f 209/4/3 207/4/3 206/4/3
f 210/4/3 207/4/3 209/4/3
f 211/1/3 208/1/3 207/1/3
f 213/4/3 209/4/3 204/4/3
f 213/5/3 210/5/3 209/5/3
f 214/4/3 207/4/3 210/4/3
f 214/5/3 210/5/3 213/5/3
f 215/4/3 213/4/3 204/4/3
f 215/4/3 214/4/3 213/4/3
f 216/4/3 214/4/3 215/4/3
f 217/4/3 207/4/3 214/4/3
f 217/4/3 214/4/3 216/4/3
f 218/1/3 212/1/3 211/1/3
f 218/4/3 207/4/3 217/4/3
f 218/1/3 211/1/3 207/1/3
f 219/1/3 212/1/3 218/1/3
f 221/1/3 220/1/3 219/1/3
f 221/1/3 219/1/3 218/1/3
f 221/1/3 218/1/3 217/1/3
f 222/1/3 220/1/3 221/1/3
f 223/1/3 220/1/3 222/1/3
f 225/4/3 222/4/3 221/4/3
f 225/1/3 224/1/3 223/1/3
f 225/1/3 223/1/3 222/1/3
f 226/1/3 224/1/3 225/1/3
f 227/1/3 221/1/3 217/1/3
f 227/4/3 225/4/3 221/4/3
f 227/4/3 226/4/3 225/4/3
f 228/1/3 224/1/3 226/1/3
f 228/4/3 226/4/3 227/4/3
f 229/1/3 224/1/3 228/1/3
f 230/1/3 227/1/3 217/1/3
f 230/1/3 228/1/3 227/1/3
f 231/1/3 228/1/3 230/1/3
f 233/2/3 217/2/3 216/2/3
f 234/1/3 230/1/3 217/1/3
f 234/2/3 217/2/3 233/2/3
f 235/1/3 230/1/3 234/1/3
f 236/4/3 233/4/3 232/4/3
f 236/4/3 234/4/3 233/4/3
f 236/4/3 235/4/3 234/4/3
f 237/4/3 235/4/3 236/4/3
f 238/4/3 236/4/3 232/4/3
f 238/5/3 237/5/3 236/5/3
f 239/4/3 235/4/3 237/4/3
f 239/5/3 237/5/3 238/5/3
f 240/1/3 230/1/3 235/1/3
f 241/1/3 230/1/3 240/1/3
f 242/4/3 238/4/3 232/4/3
f 242/4/3 239/4/3 238/4/3
f 243/4/3 239/4/3 242/4/3
f 244/4/3 235/4/3 239/4/3
f 244/4/3 239/4/3 243/4/3
f 244/1/3 240/1/3 235/1/3
f 245/1/3 240/1/3 244/1/3
f 246/2/3 244/2/3 243/2/3
f 247/2/3 244/2/3 246/2/3
f 250/1/3 249/1/3 248/1/3
f 251/1/3 249/1/3 250/1/3
f 253/1/3 252/1/3 251/1/3
f 254/1/3 252/1/3 253/1/3
f 257/1/3 256/1/3 255/1/3
f 258/1/3 256/1/3 257/1/3
f 261/1/3 259/1/3 258/1/3
f 262/1/3 259/1/3 261/1/3
f 263/1/3 261/1/3 260/1/3
f 264/1/3 261/1/3 263/1/3
f 267/1/3 266/1/3 265/1/3
f 268/1/3 266/1/3 267/1/3
f 271/9/3 270/9/3 269/9/3
f 272/9/3 270/9/3 271/9/3
f 276/8/3 274/8/3 273/8/3
f 277/9/3 275/9/3 274/9/3
f 277/8/3 274/8/3 276/8/3
f 278/9/3 275/9/3 277/9/3
f 279/9/3 275/9/3 278/9/3
f 282/3/3 281/3/3 280/3/3
f 283/3/3 281/3/3 282/3/3
f 286/4/3 285/4/3 284/4/3
f 287/4/3 285/4/3 286/4/3
f 291/1/3 289/1/3 288/1/3
f 292/1/3 291/1/3 290/1/3
f 293/1/3 289/1/3 291/1/3
f 293/1/3 291/1/3 292/1/3
f 296/1/3 289/1/3 293/1/3
f 297/1/3 289/1/3 296/1/3
f 298/4/3 295/4/3 294/4/3
f 299/4/3 295/4/3 298/4/3
f 300/1/3 296/1/3 293/1/3
f 301/1/3 296/1/3 300/1/3
f 302/4/4 303/4/4 304/4/4
f 304/4/4 303/4/4 305/4/4
f 306/1/4 307/1/4 309/1/4
f 308/1/4 309/1/4 310/1/4
f 309/1/4 307/1/4 311/1/4
f 310/1/4 309/1/4 311/1/4
f 311/1/4 307/1/4 314/1/4
f 314/1/4 307/1/4 315/1/4
f 312/4/4 313/4/4 316/4/4
f 316/4/4 313/4/4 317/4/4
f 311/1/4 314/1/4 318/1/4
f 318/1/4 314/1/4 319/1/4
f 320/3/4 321/3/4 322/3/4
f 322/3/4 321/3/4 323/3/4
f 324/8/4 325/8/4 327/8/4
f 325/9/4 326/9/4 328/9/4
f 327/8/4 325/8/4 328/8/4
f 328/9/4 326/9/4 329/9/4
f 330/8/4 331/8/4 333/8/4
f 331/9/4 332/9/4 334/9/4
f 333/8/4 331/8/4 334/8/4
f 334/9/4 332/9/4 335/9/4
f 336/1/4 337/1/4 338/1/4
f 338/1/4 337/1/4 339/1/4
f 339/1/4 340/1/4 341/1/4
f 341/1/4 340/1/4 342/1/4
f 343/1/4 344/1/4 345/1/4
f 345/1/4 344/1/4 346/1/4
f 346/1/4 347/1/4 349/1/4
f 349/1/4 347/1/4 350/1/4
f 348/1/4 349/1/4 351/1/4
f 351/1/4 349/1/4 352/1/4
f 353/1/4 354/1/4 355/1/4
f 355/1/4 354/1/4 356/1/4
f 357/2/4 358/2/4 359/2/4
f 357/2/4 359/2/4 362/2/4
f 359/1/4 360/1/4 363/1/4
f 362/2/4 359/2/4 363/2/4
f 363/1/4 360/1/4 364/1/4
f 361/4/4 362/4/4 366/4/4
f 362/4/4 363/4/4 366/4/4
f 363/4/4 364/4/4 366/4/4
f 366/4/4 364/4/4 367/4/4
f 364/1/4 365/1/4 368/1/4
f 361/4/4 366/4/4 370/4/4
f 366/5/4 367/5/4 370/5/4
f 367/4/4 364/4/4 371/4/4
f 370/5/4 367/5/4 371/5/4
f 361/4/4 370/4/4 372/4/4
f 370/4/4 371/4/4 372/4/4
f 372/4/4 371/4/4 373/4/4
f 371/4/4 364/4/4 374/4/4
f 373/4/4 371/4/4 374/4/4
f 368/1/4 369/1/4 375/1/4
f 374/4/4 364/4/4 375/4/4
f 364/1/4 368/1/4 375/1/4
f 375/1/4 369/1/4 376/1/4
f 376/1/4 377/1/4 378/1/4
f 375/1/4 376/1/4 378/1/4
f 374/1/4 375/1/4 378/1/4
f 378/1/4 377/1/4 379/1/4
f 379/1/4 377/1/4 380/1/4
f 378/4/4 379/4/4 382/4/4
f 380/1/4 381/1/4 382/1/4
f 379/1/4 380/1/4 382/1/4
f 382/1/4 381/1/4 383/1/4
f 374/1/4 378/1/4 384/1/4
f 378/4/4 382/4/4 384/4/4
f 382/4/4 383/4/4 384/4/4
f 383/1/4 381/1/4 385/1/4
f 384/4/4 383/4/4 385/4/4
f 385/1/4 381/1/4 386/1/4
f 374/1/4 384/1/4 387/1/4
f 384/1/4 385/1/4 387/1/4
f 387/1/4 385/1/4 388/1/4
f 373/2/4 374/2/4 390/2/4
f 374/1/4 387/1/4 391/1/4
f 390/2/4 374/2/4 391/2/4
f 391/1/4 387/1/4 392/1/4
f 389/4/4 390/4/4 393/4/4
f 390/4/4 391/4/4 393/4/4
f 391/4/4 392/4/4 393/4/4
f 393/4/4 392/4/4 394/4/4
f 389/4/4 393/4/4 395/4/4
f 393/5/4 394/5/4 395/5/4
f 394/4/4 392/4/4 396/4/4
f 395/5/4 394/5/4 396/5/4
f 392/1/4 387/1/4 397/1/4
f 397/1/4 387/1/4 398/1/4
f 389/4/4 395/4/4 399/4/4
f 395/4/4 396/4/4 399/4/4
f 399/4/4 396/4/4 400/4/4
f 396/4/4 392/4/4 401/4/4
f 400/4/4 396/4/4 401/4/4
f 392/1/4 397/1/4 401/1/4
f 401/1/4 397/1/4 402/1/4
f 400/2/4 401/2/4 403/2/4
f 403/2/4 401/2/4 404/2/4
f 409/4/5 406/4/5 405/4/5
f 410/4/5 406/4/5 409/4/5
f 411/4/5 408/4/5 407/4/5
f 412/4/5 408/4/5 411/4/5
f 417/4/5 414/4/5 413/4/5
f 418/4/5 414/4/5 417/4/5
f 419/4/5 416/4/5 415/4/5
f 420/4/5 416/4/5 419/4/5
f 427/2/5 422/2/5 421/2/5
f 428/2/5 424/2/5 423/2/5
f 429/2/5 424/2/5 428/2/5
f 430/2/5 426/2/5 425/2/5
f 431/2/5 429/2/5 428/2/5
f 431/2/5 430/2/5 429/2/5
f 431/2/5 427/2/5 421/2/5
f 431/2/5 428/2/5 427/2/5
f 432/2/5 430/2/5 431/2/5
f 433/2/5 430/2/5 432/2/5
f 434/2/5 426/2/5 430/2/5
f 434/2/5 430/2/5 433/2/5
f 435/2/5 431/2/5 421/2/5
f 436/2/5 431/2/5 435/2/5
f 437/2/5 433/2/5 432/2/5
f 438/2/5 433/2/5 437/2/5
f 439/2/5 426/2/5 434/2/5
f 440/2/5 426/2/5 439/2/5
f 441/2/6 442/2/6 445/2/6
f 443/2/6 444/2/6 446/2/6
f 441/2/6 445/2/6 449/2/6
f 447/2/6 448/2/6 450/2/6
f 443/2/6 446/2/6 451/2/6
f 451/2/6 446/2/6 452/2/6
f 447/2/6 450/2/6 453/2/6
f 441/2/6 449/2/6 454/2/6
f 452/2/6 453/2/6 455/2/6
f 453/2/6 450/2/6 455/2/6
f 441/2/6 454/2/6 456/2/6
f 452/2/6 455/2/6 458/2/6
f 458/2/6 455/2/6 459/2/6
f 457/2/6 458/2/6 460/2/6
f 460/2/6 458/2/6 461/2/6
f 441/2/6 456/2/6 462/2/6
f 462/2/6 456/2/6 463/2/6
f 464/1/6 465/1/6 468/1/6
f 468/1/6 465/1/6 469/1/6
f 466/2/6 467/2/6 473/2/6
f 473/2/6 467/2/6 474/2/6
f 472/3/6 473/3/6 475/3/6
f 475/3/6 473/3/6 476/3/6
f 476/3/6 473/3/6 477/3/6
f 470/3/6 471/3/6 478/3/6
f 470/3/6 478/3/6 479/3/6
f 470/3/6 479/3/6 484/3/6
f 484/3/6 479/3/6 485/3/6
f 480/3/6 481/3/6 486/3/6
f 486/3/6 481/3/6 487/3/6
f 482/1/6 483/1/6 489/1/6
f 489/1/6 483/1/6 490/1/6
f 487/2/6 488/2/6 491/2/6
f 491/2/6 488/2/6 492/2/6
f 493/1/6 494/1/6 498/1/6
f 498/1/6 494/1/6 499/1/6
f 495/1/6 496/1/6 500/1/6
f 500/1/6 496/1/6 501/1/6
f 503/9/6 504/9/6 505/9/6
f 505/9/6 504/9/6 506/9/6
f 497/1/6 498/1/6 507/1/6
f 507/1/6 498/1/6 508/1/6
f 501/1/6 502/1/6 511/1/6
f 511/1/6 502/1/6 512/1/6
f 508/1/6 509/1/6 513/1/6
f 513/1/6 509/1/6 514/1/6
f 510/1/6 511/1/6 515/1/6
f 515/1/6 511/1/6 516/1/6
f 517/1/6 518/1/6 522/1/6
f 522/1/6 518/1/6 523/1/6
f 519/1/6 520/1/6 524/1/6
f 524/1/6 520/1/6 525/1/6
f 519/1/6 524/1/6 526/1/6
f 526/1/6 524/1/6 529/1/6
f 527/9/6 528/9/6 530/9/6
f 530/9/6 528/9/6 531/9/6
f 522/1/6 523/1/6 532/1/6
f 521/1/6 522/1/6 532/1/6
f 532/1/6 523/1/6 533/1/6
f 533/1/6 523/1/6 534/1/6
f 529/1/6 524/1/6 535/1/6
f 533/1/6 534/1/6 537/1/6
f 537/1/6 534/1/6 538/1/6
f 529/1/6 535/1/6 539/1/6
f 535/1/6 536/1/6 539/1/6
f 539/1/6 536/1/6 540/1/6
f 541/1/6 542/1/6 545/1/6
f 545/1/6 542/1/6 546/1/6
f 543/1/6 544/1/6 547/1/6
f 547/1/6 544/1/6 548/1/6
f 549/1/6 550/1/6 553/1/6
f 553/1/6 550/1/6 554/1/6
f 551/1/6 552/1/6 555/1/6
f 555/1/6 552/1/6 556/1/6
f 557/1/6 558/1/6 560/1/6
f 560/1/6 558/1/6 561/1/6
f 559/1/6 560/1/6 563/1/6
f 563/1/6 560/1/6 564/1/6
f 561/1/6 562/1/6 565/1/6
f 565/1/6 562/1/6 566/1/6
f 564/1/6 565/1/6 567/1/6
f 567/1/6 565/1/6 568/1/6
f 569/1/6 570/1/6 571/1/6
f 571/1/6 570/1/6 572/1/6
