# MagicaVoxel @ Ephtracy

# group
o 

# material
mtllib CarroAzul.mtl
usemtl palette

# normals
vn -1 0 0
vn 1 0 0
vn 0 0 1
vn 0 0 -1
vn 0 -1 0
vn 0 1 0

# texcoords
vt 0.908203 0.5
vt 0.912109 0.5
vt 0.916016 0.5
vt 0.919922 0.5
vt 0.923828 0.5
vt 0.927734 0.5
vt 0.986328 0.5

# verts
v -0.8 0.2 0.3
v -0.8 0.2 -0.4
v -0.8 0.3 0.3
v -0.8 0.3 -0.4
v -0.7 0.3 0.3
v -0.7 0.3 0.2
v -0.7 0.3 0.1
v -0.7 0.3 -0.2
v -0.7 0.3 -0.3
v -0.7 0.3 -0.4
v -0.7 0.4 0.3
v -0.7 0.4 0.2
v -0.7 0.4 0.1
v -0.7 0.4 -0.2
v -0.7 0.4 -0.3
v -0.7 0.4 -0.4
v -0.7 0.5 0.2
v -0.7 0.5 -0.3
v -0.6 0.1 0.3
v -0.6 0.1 0.2
v -0.6 0.1 -0.3
v -0.6 0.1 -0.4
v -0.6 0.2 0.3
v -0.6 0.2 0.2
v -0.6 0.2 -0.3
v -0.6 0.2 -0.4
v -0.6 0.4 0.3
v -0.6 0.4 0.2
v -0.6 0.4 -0.3
v -0.6 0.4 -0.4
v -0.6 0.5 0.3
v -0.6 0.5 0.2
v -0.6 0.5 -0.3
v -0.6 0.5 -0.4
v -0.2 0.5 0.3
v -0.2 0.5 0.2
v -0.2 0.5 -0.3
v -0.2 0.5 -0.4
v -0.2 0.7 0.3
v -0.2 0.7 0.2
v -0.2 0.7 -0.3
v -0.2 0.7 -0.4
v -0.2 0.8 0.2
v -0.2 0.8 -0.3
v -0.1 0.7 0.3
v -0.1 0.7 0.2
v -0.1 0.7 -0.3
v -0.1 0.7 -0.4
v -0.1 0.8 0.3
v -0.1 0.8 0.2
v -0.1 0.8 -0.3
v -0.1 0.8 -0.4
v 0.4 0.1 0.3
v 0.4 0.1 0.2
v 0.4 0.1 -0.3
v 0.4 0.1 -0.4
v 0.4 0.2 0.3
v 0.4 0.2 0.2
v 0.4 0.2 -0.3
v 0.4 0.2 -0.4
v -0.3 0.1 0.3
v -0.3 0.1 0.2
v -0.3 0.1 -0.3
v -0.3 0.1 -0.4
v -0.3 0.2 0.3
v -0.3 0.2 0.2
v -0.3 0.2 -0.3
v -0.3 0.2 -0.4
v 0.3 0.7 0.3
v 0.3 0.7 0.2
v 0.3 0.7 -0.3
v 0.3 0.7 -0.4
v 0.3 0.8 0.3
v 0.3 0.8 0.2
v 0.3 0.8 -0.3
v 0.3 0.8 -0.4
v 0.4 0.5 0.3
v 0.4 0.5 -0.4
v 0.4 0.6 0.2
v 0.4 0.6 -0.3
v 0.4 0.7 0.3
v 0.4 0.7 0.2
v 0.4 0.7 -0.3
v 0.4 0.7 -0.4
v 0.4 0.8 0.2
v 0.4 0.8 -0.3
v 0.7 0.1 0.3
v 0.7 0.1 0.2
v 0.7 0.1 -0.3
v 0.7 0.1 -0.4
v 0.7 0.2 0.3
v 0.7 0.2 0.2
v 0.7 0.2 -0.3
v 0.7 0.2 -0.4
v 0.7 0.4 0.3
v 0.7 0.4 0.2
v 0.7 0.4 -0.3
v 0.7 0.4 -0.4
v 0.7 0.5 0.3
v 0.7 0.5 0.2
v 0.7 0.5 -0.3
v 0.7 0.5 -0.4
v 0.8 0.2 0.3
v 0.8 0.2 -0.4
v 0.8 0.3 0.2
v 0.8 0.3 0.1
v 0.8 0.3 0
v 0.8 0.3 -0.1
v 0.8 0.3 -0.2
v 0.8 0.3 -0.3
v 0.8 0.4 0.3
v 0.8 0.4 0.2
v 0.8 0.4 0.1
v 0.8 0.4 0
v 0.8 0.4 -0.1
v 0.8 0.4 -0.2
v 0.8 0.4 -0.3
v 0.8 0.4 -0.4
v 0.8 0.5 0.2
v 0.8 0.5 -0.3
v -0.8 0.2 0.3
v -0.8 0.3 0.3
v -0.7 0.3 0.3
v -0.7 0.4 0.3
v -0.6 0.1 0.3
v -0.6 0.2 0.3
v -0.6 0.3 0.3
v -0.6 0.4 0.3
v -0.6 0.5 0.3
v -0.5 0.2 0.3
v -0.5 0.3 0.3
v -0.4 0.2 0.3
v -0.4 0.3 0.3
v -0.3 0.1 0.3
v -0.3 0.2 0.3
v -0.3 0.3 0.3
v -0.3 0.4 0.3
v -0.2 0.5 0.3
v -0.2 0.7 0.3
v -0.1 0.5 0.3
v -0.1 0.7 0.3
v -0.1 0.8 0.3
v 0.1 0.5 0.3
v 0.1 0.7 0.3
v 0.2 0.5 0.3
v 0.2 0.7 0.3
v 0.3 0.5 0.3
v 0.3 0.7 0.3
v 0.3 0.8 0.3
v 0.4 0.1 0.3
v 0.4 0.2 0.3
v 0.4 0.3 0.3
v 0.4 0.4 0.3
v 0.4 0.5 0.3
v 0.4 0.7 0.3
v 0.5 0.2 0.3
v 0.5 0.3 0.3
v 0.6 0.2 0.3
v 0.6 0.3 0.3
v 0.7 0.1 0.3
v 0.7 0.2 0.3
v 0.7 0.4 0.3
v 0.7 0.5 0.3
v 0.8 0.2 0.3
v 0.8 0.4 0.3
v -0.7 0.4 0.2
v -0.7 0.5 0.2
v -0.6 0.4 0.2
v -0.6 0.5 0.2
v -0.2 0.7 0.2
v -0.2 0.8 0.2
v -0.1 0.7 0.2
v -0.1 0.8 0.2
v 0.3 0.7 0.2
v 0.3 0.8 0.2
v 0.4 0.7 0.2
v 0.4 0.8 0.2
v 0.7 0.4 0.2
v 0.7 0.5 0.2
v 0.8 0.4 0.2
v 0.8 0.5 0.2
v -0.6 0.1 -0.3
v -0.6 0.2 -0.3
v -0.3 0.1 -0.3
v -0.3 0.2 -0.3
v 0.4 0.1 -0.3
v 0.4 0.2 -0.3
v 0.7 0.1 -0.3
v 0.7 0.2 -0.3
v -0.6 0.1 0.2
v -0.6 0.2 0.2
v -0.3 0.1 0.2
v -0.3 0.2 0.2
v 0.4 0.1 0.2
v 0.4 0.2 0.2
v 0.7 0.1 0.2
v 0.7 0.2 0.2
v -0.7 0.4 -0.3
v -0.7 0.5 -0.3
v -0.6 0.4 -0.3
v -0.6 0.5 -0.3
v -0.2 0.7 -0.3
v -0.2 0.8 -0.3
v -0.1 0.7 -0.3
v -0.1 0.8 -0.3
v 0.3 0.7 -0.3
v 0.3 0.8 -0.3
v 0.4 0.7 -0.3
v 0.4 0.8 -0.3
v 0.7 0.4 -0.3
v 0.7 0.5 -0.3
v 0.8 0.4 -0.3
v 0.8 0.5 -0.3
v -0.8 0.2 -0.4
v -0.8 0.3 -0.4
v -0.7 0.3 -0.4
v -0.7 0.4 -0.4
v -0.6 0.1 -0.4
v -0.6 0.2 -0.4
v -0.6 0.3 -0.4
v -0.6 0.4 -0.4
v -0.6 0.5 -0.4
v -0.5 0.2 -0.4
v -0.5 0.3 -0.4
v -0.4 0.2 -0.4
v -0.4 0.3 -0.4
v -0.3 0.1 -0.4
v -0.3 0.2 -0.4
v -0.3 0.3 -0.4
v -0.3 0.4 -0.4
v -0.2 0.5 -0.4
v -0.2 0.7 -0.4
v -0.1 0.5 -0.4
v -0.1 0.7 -0.4
v -0.1 0.8 -0.4
v 0.1 0.5 -0.4
v 0.1 0.7 -0.4
v 0.2 0.5 -0.4
v 0.2 0.7 -0.4
v 0.3 0.5 -0.4
v 0.3 0.7 -0.4
v 0.3 0.8 -0.4
v 0.4 0.1 -0.4
v 0.4 0.2 -0.4
v 0.4 0.3 -0.4
v 0.4 0.4 -0.4
v 0.4 0.5 -0.4
v 0.4 0.7 -0.4
v 0.5 0.2 -0.4
v 0.5 0.3 -0.4
v 0.6 0.2 -0.4
v 0.6 0.3 -0.4
v 0.7 0.1 -0.4
v 0.7 0.2 -0.4
v 0.7 0.4 -0.4
v 0.7 0.5 -0.4
v 0.8 0.2 -0.4
v 0.8 0.4 -0.4
v -0.6 0.1 0.3
v -0.3 0.1 0.3
v 0.4 0.1 0.3
v 0.7 0.1 0.3
v -0.6 0.1 0.2
v -0.3 0.1 0.2
v 0.4 0.1 0.2
v 0.7 0.1 0.2
v -0.6 0.1 -0.3
v -0.3 0.1 -0.3
v 0.4 0.1 -0.3
v 0.7 0.1 -0.3
v -0.6 0.1 -0.4
v -0.3 0.1 -0.4
v 0.4 0.1 -0.4
v 0.7 0.1 -0.4
v -0.8 0.2 0.3
v -0.6 0.2 0.3
v -0.3 0.2 0.3
v 0.4 0.2 0.3
v 0.7 0.2 0.3
v 0.8 0.2 0.3
v -0.6 0.2 0.2
v -0.3 0.2 0.2
v 0.4 0.2 0.2
v 0.7 0.2 0.2
v -0.6 0.2 -0.3
v -0.3 0.2 -0.3
v 0.4 0.2 -0.3
v 0.7 0.2 -0.3
v -0.8 0.2 -0.4
v -0.6 0.2 -0.4
v -0.3 0.2 -0.4
v 0.4 0.2 -0.4
v 0.7 0.2 -0.4
v 0.8 0.2 -0.4
v -0.8 0.3 0.3
v -0.7 0.3 0.3
v -0.7 0.3 0.2
v -0.7 0.3 0.1
v -0.7 0.3 -0.2
v -0.7 0.3 -0.3
v -0.8 0.3 -0.4
v -0.7 0.3 -0.4
v -0.7 0.4 0.3
v -0.6 0.4 0.3
v 0.7 0.4 0.3
v 0.8 0.4 0.3
v -0.7 0.4 0.2
v -0.6 0.4 0.2
v 0.7 0.4 0.2
v 0.8 0.4 0.2
v -0.7 0.4 -0.3
v -0.6 0.4 -0.3
v 0.7 0.4 -0.3
v 0.8 0.4 -0.3
v -0.7 0.4 -0.4
v -0.6 0.4 -0.4
v 0.7 0.4 -0.4
v 0.8 0.4 -0.4
v -0.6 0.5 0.3
v -0.2 0.5 0.3
v 0.4 0.5 0.3
v 0.7 0.5 0.3
v -0.7 0.5 0.2
v -0.6 0.5 0.2
v -0.2 0.5 0.2
v 0.7 0.5 0.2
v 0.8 0.5 0.2
v -0.7 0.5 -0.3
v -0.6 0.5 -0.3
v -0.2 0.5 -0.3
v 0.7 0.5 -0.3
v 0.8 0.5 -0.3
v -0.6 0.5 -0.4
v -0.2 0.5 -0.4
v 0.4 0.5 -0.4
v 0.7 0.5 -0.4
v -0.2 0.7 0.3
v -0.1 0.7 0.3
v 0.3 0.7 0.3
v 0.4 0.7 0.3
v -0.2 0.7 0.2
v -0.1 0.7 0.2
v 0.3 0.7 0.2
v 0.4 0.7 0.2
v -0.2 0.7 -0.3
v -0.1 0.7 -0.3
v 0.3 0.7 -0.3
v 0.4 0.7 -0.3
v -0.2 0.7 -0.4
v -0.1 0.7 -0.4
v 0.3 0.7 -0.4
v 0.4 0.7 -0.4
v -0.1 0.8 0.3
v 0.3 0.8 0.3
v -0.2 0.8 0.2
v -0.1 0.8 0.2
v 0.3 0.8 0.2
v 0.4 0.8 0.2
v -0.2 0.8 -0.3
v -0.1 0.8 -0.3
v 0.3 0.8 -0.3
v 0.4 0.8 -0.3
v -0.1 0.8 -0.4
v 0.3 0.8 -0.4

# faces
f 3/6/1 2/6/1 1/6/1
f 4/6/1 2/6/1 3/6/1
f 11/5/1 6/5/1 5/5/1
f 12/7/1 7/7/1 6/7/1
f 12/5/1 6/5/1 11/5/1
f 13/1/1 8/1/1 7/1/1
f 13/7/1 7/7/1 12/7/1
f 14/7/1 9/7/1 8/7/1
f 14/1/1 8/1/1 13/1/1
f 15/5/1 10/5/1 9/5/1
f 15/7/1 9/7/1 14/7/1
f 16/5/1 10/5/1 15/5/1
f 17/5/1 14/5/1 13/5/1
f 17/5/1 15/5/1 14/5/1
f 17/5/1 13/5/1 12/5/1
f 18/5/1 15/5/1 17/5/1
f 23/1/1 20/1/1 19/1/1
f 24/1/1 20/1/1 23/1/1
f 25/1/1 22/1/1 21/1/1
f 26/1/1 22/1/1 25/1/1
f 31/5/1 28/5/1 27/5/1
f 32/5/1 28/5/1 31/5/1
f 33/5/1 30/5/1 29/5/1
f 34/5/1 30/5/1 33/5/1
f 39/5/1 36/5/1 35/5/1
f 40/1/1 37/1/1 36/1/1
f 40/5/1 36/5/1 39/5/1
f 41/5/1 38/5/1 37/5/1
f 41/1/1 37/1/1 40/1/1
f 42/5/1 38/5/1 41/5/1
f 43/5/1 41/5/1 40/5/1
f 44/5/1 41/5/1 43/5/1
f 49/5/1 46/5/1 45/5/1
f 50/5/1 46/5/1 49/5/1
f 51/5/1 48/5/1 47/5/1
f 52/5/1 48/5/1 51/5/1
f 57/1/1 54/1/1 53/1/1
f 58/1/1 54/1/1 57/1/1
f 59/1/1 56/1/1 55/1/1
f 60/1/1 56/1/1 59/1/1
f 61/1/2 62/1/2 65/1/2
f 65/1/2 62/1/2 66/1/2
f 63/1/2 64/1/2 67/1/2
f 67/1/2 64/1/2 68/1/2
f 69/5/2 70/5/2 73/5/2
f 73/5/2 70/5/2 74/5/2
f 71/5/2 72/5/2 75/5/2
f 75/5/2 72/5/2 76/5/2
f 77/5/2 78/5/2 79/5/2
f 79/5/2 78/5/2 80/5/2
f 77/5/2 79/5/2 81/5/2
f 79/1/2 80/1/2 82/1/2
f 81/5/2 79/5/2 82/5/2
f 80/5/2 78/5/2 83/5/2
f 82/1/2 80/1/2 83/1/2
f 83/5/2 78/5/2 84/5/2
f 82/5/2 83/5/2 85/5/2
f 85/5/2 83/5/2 86/5/2
f 87/1/2 88/1/2 91/1/2
f 91/1/2 88/1/2 92/1/2
f 89/1/2 90/1/2 93/1/2
f 93/1/2 90/1/2 94/1/2
f 95/5/2 96/5/2 99/5/2
f 99/5/2 96/5/2 100/5/2
f 97/5/2 98/5/2 101/5/2
f 101/5/2 98/5/2 102/5/2
f 103/6/2 104/6/2 105/6/2
f 105/6/2 104/6/2 106/6/2
f 106/6/2 104/6/2 107/6/2
f 107/6/2 104/6/2 108/6/2
f 108/6/2 104/6/2 109/6/2
f 109/6/2 104/6/2 110/6/2
f 103/6/2 105/6/2 111/6/2
f 105/3/2 106/3/2 112/3/2
f 111/6/2 105/6/2 112/6/2
f 106/4/2 107/4/2 113/4/2
f 112/3/2 106/3/2 113/3/2
f 107/5/2 108/5/2 114/5/2
f 113/4/2 107/4/2 114/4/2
f 108/4/2 109/4/2 115/4/2
f 114/5/2 108/5/2 115/5/2
f 109/3/2 110/3/2 116/3/2
f 115/4/2 109/4/2 116/4/2
f 110/6/2 104/6/2 117/6/2
f 116/3/2 110/3/2 117/3/2
f 117/6/2 104/6/2 118/6/2
f 115/5/2 116/5/2 119/5/2
f 116/5/2 117/5/2 119/5/2
f 114/5/2 115/5/2 119/5/2
f 113/5/2 114/5/2 119/5/2
f 112/5/2 113/5/2 119/5/2
f 119/5/2 117/5/2 120/5/2
f 123/6/3 122/6/3 121/6/3
f 126/6/3 123/6/3 121/6/3
f 127/5/3 124/5/3 123/5/3
f 127/6/3 123/6/3 126/6/3
f 128/5/3 124/5/3 127/5/3
f 130/1/3 126/1/3 125/1/3
f 130/1/3 127/1/3 126/1/3
f 130/1/3 128/1/3 127/1/3
f 131/1/3 128/1/3 130/1/3
f 132/1/3 130/1/3 125/1/3
f 132/2/3 131/2/3 130/2/3
f 133/1/3 128/1/3 131/1/3
f 133/2/3 131/2/3 132/2/3
f 134/1/3 132/1/3 125/1/3
f 134/1/3 133/1/3 132/1/3
f 135/1/3 133/1/3 134/1/3
f 136/1/3 128/1/3 133/1/3
f 136/1/3 133/1/3 135/1/3
f 137/5/3 129/5/3 128/5/3
f 137/1/3 128/1/3 136/1/3
f 138/5/3 129/5/3 137/5/3
f 138/5/3 137/5/3 136/5/3
f 140/5/3 138/5/3 136/5/3
f 140/5/3 139/5/3 138/5/3
f 141/5/3 139/5/3 140/5/3
f 143/5/3 140/5/3 136/5/3
f 143/1/3 141/1/3 140/1/3
f 144/5/3 142/5/3 141/5/3
f 144/1/3 141/1/3 143/1/3
f 145/5/3 143/5/3 136/5/3
f 145/5/3 144/5/3 143/5/3
f 146/5/3 142/5/3 144/5/3
f 146/5/3 144/5/3 145/5/3
f 147/5/3 145/5/3 136/5/3
f 147/1/3 146/1/3 145/1/3
f 148/5/3 142/5/3 146/5/3
f 148/1/3 146/1/3 147/1/3
f 149/5/3 142/5/3 148/5/3
f 151/6/3 136/6/3 135/6/3
f 152/5/3 147/5/3 136/5/3
f 152/5/3 148/5/3 147/5/3
f 152/6/3 136/6/3 151/6/3
f 153/5/3 148/5/3 152/5/3
f 154/5/3 148/5/3 153/5/3
f 155/5/3 148/5/3 154/5/3
f 156/1/3 151/1/3 150/1/3
f 156/1/3 152/1/3 151/1/3
f 156/1/3 153/1/3 152/1/3
f 157/1/3 153/1/3 156/1/3
f 158/1/3 156/1/3 150/1/3
f 158/2/3 157/2/3 156/2/3
f 159/1/3 153/1/3 157/1/3
f 159/2/3 157/2/3 158/2/3
f 160/1/3 158/1/3 150/1/3
f 160/1/3 159/1/3 158/1/3
f 161/1/3 159/1/3 160/1/3
f 162/5/3 154/5/3 153/5/3
f 162/1/3 159/1/3 161/1/3
f 162/1/3 153/1/3 159/1/3
f 163/5/3 154/5/3 162/5/3
f 164/6/3 162/6/3 161/6/3
f 165/6/3 162/6/3 164/6/3
f 168/5/3 167/5/3 166/5/3
f 169/5/3 167/5/3 168/5/3
f 172/5/3 171/5/3 170/5/3
f 173/5/3 171/5/3 172/5/3
f 176/5/3 175/5/3 174/5/3
f 177/5/3 175/5/3 176/5/3
f 180/5/3 179/5/3 178/5/3
f 181/5/3 179/5/3 180/5/3
f 184/1/3 183/1/3 182/1/3
f 185/1/3 183/1/3 184/1/3
f 188/1/3 187/1/3 186/1/3
f 189/1/3 187/1/3 188/1/3
f 190/1/4 191/1/4 192/1/4
f 192/1/4 191/1/4 193/1/4
f 194/1/4 195/1/4 196/1/4
f 196/1/4 195/1/4 197/1/4
f 198/5/4 199/5/4 200/5/4
f 200/5/4 199/5/4 201/5/4
f 202/5/4 203/5/4 204/5/4
f 204/5/4 203/5/4 205/5/4
f 206/5/4 207/5/4 208/5/4
f 208/5/4 207/5/4 209/5/4
f 210/5/4 211/5/4 212/5/4
f 212/5/4 211/5/4 213/5/4
f 214/6/4 215/6/4 216/6/4
f 214/6/4 216/6/4 219/6/4
f 216/5/4 217/5/4 220/5/4
f 219/6/4 216/6/4 220/6/4
f 220/5/4 217/5/4 221/5/4
f 218/1/4 219/1/4 223/1/4
f 219/1/4 220/1/4 223/1/4
f 220/1/4 221/1/4 223/1/4
f 223/1/4 221/1/4 224/1/4
f 218/1/4 223/1/4 225/1/4
f 223/2/4 224/2/4 225/2/4
f 224/1/4 221/1/4 226/1/4
f 225/2/4 224/2/4 226/2/4
f 218/1/4 225/1/4 227/1/4
f 225/1/4 226/1/4 227/1/4
f 227/1/4 226/1/4 228/1/4
f 226/1/4 221/1/4 229/1/4
f 228/1/4 226/1/4 229/1/4
f 221/5/4 222/5/4 230/5/4
f 229/1/4 221/1/4 230/1/4
f 230/5/4 222/5/4 231/5/4
f 229/5/4 230/5/4 231/5/4
f 229/5/4 231/5/4 233/5/4
f 231/5/4 232/5/4 233/5/4
f 233/5/4 232/5/4 234/5/4
f 229/5/4 233/5/4 236/5/4
f 233/1/4 234/1/4 236/1/4
f 234/5/4 235/5/4 237/5/4
f 236/1/4 234/1/4 237/1/4
f 229/5/4 236/5/4 238/5/4
f 236/5/4 237/5/4 238/5/4
f 237/5/4 235/5/4 239/5/4
f 238/5/4 237/5/4 239/5/4
f 229/5/4 238/5/4 240/5/4
f 238/1/4 239/1/4 240/1/4
f 239/5/4 235/5/4 241/5/4
f 240/1/4 239/1/4 241/1/4
f 241/5/4 235/5/4 242/5/4
f 228/6/4 229/6/4 244/6/4
f 229/5/4 240/5/4 245/5/4
f 240/5/4 241/5/4 245/5/4
f 244/6/4 229/6/4 245/6/4
f 245/5/4 241/5/4 246/5/4
f 246/5/4 241/5/4 247/5/4
f 247/5/4 241/5/4 248/5/4
f 243/1/4 244/1/4 249/1/4
f 244/1/4 245/1/4 249/1/4
f 245/1/4 246/1/4 249/1/4
f 249/1/4 246/1/4 250/1/4
f 243/1/4 249/1/4 251/1/4
f 249/2/4 250/2/4 251/2/4
f 250/1/4 246/1/4 252/1/4
f 251/2/4 250/2/4 252/2/4
f 243/1/4 251/1/4 253/1/4
f 251/1/4 252/1/4 253/1/4
f 253/1/4 252/1/4 254/1/4
f 246/5/4 247/5/4 255/5/4
f 254/1/4 252/1/4 255/1/4
f 252/1/4 246/1/4 255/1/4
f 255/5/4 247/5/4 256/5/4
f 254/6/4 255/6/4 257/6/4
f 257/6/4 255/6/4 258/6/4
f 263/1/5 260/1/5 259/1/5
f 264/1/5 260/1/5 263/1/5
f 265/1/5 262/1/5 261/1/5
f 266/1/5 262/1/5 265/1/5
f 271/1/5 268/1/5 267/1/5
f 272/1/5 268/1/5 271/1/5
f 273/1/5 270/1/5 269/1/5
f 274/1/5 270/1/5 273/1/5
f 281/6/5 276/6/5 275/6/5
f 282/6/5 278/6/5 277/6/5
f 283/6/5 278/6/5 282/6/5
f 284/6/5 280/6/5 279/6/5
f 285/6/5 283/6/5 282/6/5
f 285/6/5 284/6/5 283/6/5
f 285/6/5 281/6/5 275/6/5
f 285/6/5 282/6/5 281/6/5
f 286/6/5 284/6/5 285/6/5
f 287/6/5 284/6/5 286/6/5
f 288/6/5 280/6/5 284/6/5
f 288/6/5 284/6/5 287/6/5
f 289/6/5 285/6/5 275/6/5
f 290/6/5 285/6/5 289/6/5
f 291/6/5 287/6/5 286/6/5
f 292/6/5 287/6/5 291/6/5
f 293/6/5 280/6/5 288/6/5
f 294/6/5 280/6/5 293/6/5
f 295/6/6 296/6/6 297/6/6
f 295/6/6 297/6/6 298/6/6
f 295/6/6 298/6/6 299/6/6
f 295/6/6 299/6/6 300/6/6
f 295/6/6 300/6/6 301/6/6
f 301/6/6 300/6/6 302/6/6
f 303/5/6 304/5/6 307/5/6
f 307/5/6 304/5/6 308/5/6
f 305/6/6 306/6/6 309/6/6
f 309/6/6 306/6/6 310/6/6
f 311/5/6 312/5/6 315/5/6
f 315/5/6 312/5/6 316/5/6
f 313/6/6 314/6/6 317/6/6
f 317/6/6 314/6/6 318/6/6
f 319/5/6 320/5/6 324/5/6
f 324/5/6 320/5/6 325/5/6
f 321/5/6 322/5/6 326/5/6
f 324/5/6 325/5/6 328/5/6
f 323/5/6 324/5/6 328/5/6
f 328/5/6 325/5/6 329/5/6
f 329/5/6 325/5/6 330/5/6
f 326/5/6 327/5/6 331/5/6
f 321/5/6 326/5/6 331/5/6
f 331/5/6 327/5/6 332/5/6
f 329/5/6 330/5/6 333/5/6
f 333/5/6 330/5/6 334/5/6
f 321/5/6 331/5/6 335/5/6
f 335/5/6 331/5/6 336/5/6
f 337/5/6 338/5/6 341/5/6
f 341/5/6 338/5/6 342/5/6
f 339/5/6 340/5/6 343/5/6
f 343/5/6 340/5/6 344/5/6
f 345/5/6 346/5/6 349/5/6
f 349/5/6 346/5/6 350/5/6
f 347/5/6 348/5/6 351/5/6
f 351/5/6 348/5/6 352/5/6
f 353/5/6 354/5/6 356/5/6
f 356/5/6 354/5/6 357/5/6
f 355/5/6 356/5/6 359/5/6
f 357/5/6 358/5/6 359/5/6
f 356/5/6 357/5/6 359/5/6
f 359/5/6 358/5/6 360/5/6
f 360/5/6 358/5/6 361/5/6
f 361/5/6 358/5/6 362/5/6
f 360/5/6 361/5/6 363/5/6
f 363/5/6 361/5/6 364/5/6
