# MagicaVoxel @ Ephtracy

# group
o 

# material
mtllib Objs-57.mtl
usemtl palette

# normals
vn -1 0 0
vn 1 0 0
vn 0 0 1
vn 0 0 -1
vn 0 -1 0
vn 0 1 0

# texcoords
vt 0.845703 0.5
vt 0.986328 0.5

# verts
v -5.9 2 4.7
v -5.9 2 4.5
v -5.9 2.1 4.7
v -5.9 2.1 4.5
v -5.8 0.2 5.1
v -5.8 0.2 5
v -5.8 1.9 4.7
v -5.8 1.9 4.6
v -5.8 2 5
v -5.8 2 4.9
v -5.8 2 4.7
v -5.8 2 4.6
v -5.8 2.1 5.1
v -5.8 2.1 5
v -5.8 2.1 4.9
v -5.8 2.1 4.7
v -5.8 2.1 4.6
v -5.8 2.2 5
v -5.8 2.2 4.6
v -5.7 0.2 5.1
v -5.7 0.2 5
v -5.7 1.9 4.7
v -5.7 1.9 4.6
v -5.7 2 5
v -5.7 2 4.9
v -5.7 2 4.7
v -5.7 2 4.6
v -5.7 2.1 5.1
v -5.7 2.1 5
v -5.7 2.1 4.9
v -5.7 2.1 4.7
v -5.7 2.1 4.6
v -5.7 2.2 5
v -5.7 2.2 4.6
v -5.6 2 4.7
v -5.6 2 4.5
v -5.6 2.1 4.7
v -5.6 2.1 4.5
v -5.8 0.2 5.1
v -5.8 2.1 5.1
v -5.7 0.2 5.1
v -5.7 2.1 5.1
v -5.8 2.1 5
v -5.8 2.2 5
v -5.7 2.1 5
v -5.7 2.2 5
v -5.9 2 4.7
v -5.9 2.1 4.7
v -5.8 1.9 4.7
v -5.8 2 4.7
v -5.8 2.1 4.7
v -5.7 1.9 4.7
v -5.7 2 4.7
v -5.7 2.1 4.7
v -5.6 2 4.7
v -5.6 2.1 4.7
v -5.8 0.2 5
v -5.8 2 5
v -5.7 0.2 5
v -5.7 2 5
v -5.8 2 4.9
v -5.8 2.1 4.9
v -5.7 2 4.9
v -5.7 2.1 4.9
v -5.8 1.9 4.6
v -5.8 2 4.6
v -5.8 2.1 4.6
v -5.8 2.2 4.6
v -5.7 1.9 4.6
v -5.7 2 4.6
v -5.7 2.1 4.6
v -5.7 2.2 4.6
v -5.9 2 4.5
v -5.9 2.1 4.5
v -5.6 2 4.5
v -5.6 2.1 4.5
v -5.8 0.2 5.1
v -5.7 0.2 5.1
v -5.8 0.2 5
v -5.7 0.2 5
v -5.8 1.9 4.7
v -5.7 1.9 4.7
v -5.8 1.9 4.6
v -5.7 1.9 4.6
v -5.8 2 5
v -5.7 2 5
v -5.8 2 4.9
v -5.7 2 4.9
v -5.9 2 4.7
v -5.8 2 4.7
v -5.7 2 4.7
v -5.6 2 4.7
v -5.8 2 4.6
v -5.7 2 4.6
v -5.9 2 4.5
v -5.6 2 4.5
v -5.8 2.1 4.9
v -5.7 2.1 4.9
v -5.8 2.1 4.7
v -5.7 2.1 4.7
v -5.8 2.1 5.1
v -5.7 2.1 5.1
v -5.8 2.1 5
v -5.7 2.1 5
v -5.9 2.1 4.7
v -5.8 2.1 4.7
v -5.7 2.1 4.7
v -5.6 2.1 4.7
v -5.8 2.1 4.6
v -5.7 2.1 4.6
v -5.9 2.1 4.5
v -5.6 2.1 4.5
v -5.8 2.2 5
v -5.7 2.2 5
v -5.8 2.2 4.6
v -5.7 2.2 4.6

# faces
f 3/1/1 2/1/1 1/1/1
f 4/1/1 2/1/1 3/1/1
f 9/1/1 6/1/1 5/1/1
f 11/2/1 8/2/1 7/2/1
f 12/2/1 8/2/1 11/2/1
f 13/1/1 10/1/1 9/1/1
f 13/1/1 9/1/1 5/1/1
f 14/1/1 10/1/1 13/1/1
f 15/1/1 10/1/1 14/1/1
f 18/1/1 17/1/1 16/1/1
f 18/1/1 16/1/1 15/1/1
f 18/1/1 15/1/1 14/1/1
f 19/1/1 17/1/1 18/1/1
f 20/1/2 21/1/2 24/1/2
f 22/2/2 23/2/2 26/2/2
f 26/2/2 23/2/2 27/2/2
f 24/1/2 25/1/2 28/1/2
f 20/1/2 24/1/2 28/1/2
f 28/1/2 25/1/2 29/1/2
f 29/1/2 25/1/2 30/1/2
f 31/1/2 32/1/2 33/1/2
f 30/1/2 31/1/2 33/1/2
f 29/1/2 30/1/2 33/1/2
f 33/1/2 32/1/2 34/1/2
f 35/1/2 36/1/2 37/1/2
f 37/1/2 36/1/2 38/1/2
f 41/1/3 40/1/3 39/1/3
f 42/1/3 40/1/3 41/1/3
f 45/1/3 44/1/3 43/1/3
f 46/1/3 44/1/3 45/1/3
f 50/1/3 48/1/3 47/1/3
f 51/1/3 48/1/3 50/1/3
f 52/2/3 50/2/3 49/2/3
f 53/1/3 51/1/3 50/1/3
f 53/2/3 50/2/3 52/2/3
f 54/1/3 51/1/3 53/1/3
f 55/1/3 54/1/3 53/1/3
f 56/1/3 54/1/3 55/1/3
f 57/1/4 58/1/4 59/1/4
f 59/1/4 58/1/4 60/1/4
f 61/1/4 62/1/4 63/1/4
f 63/1/4 62/1/4 64/1/4
f 65/2/4 66/2/4 69/2/4
f 69/2/4 66/2/4 70/2/4
f 67/1/4 68/1/4 71/1/4
f 71/1/4 68/1/4 72/1/4
f 73/1/4 74/1/4 75/1/4
f 75/1/4 74/1/4 76/1/4
f 79/1/5 78/1/5 77/1/5
f 80/1/5 78/1/5 79/1/5
f 83/2/5 82/2/5 81/2/5
f 84/2/5 82/2/5 83/2/5
f 87/1/5 86/1/5 85/1/5
f 88/1/5 86/1/5 87/1/5
f 93/1/5 90/1/5 89/1/5
f 94/1/5 92/1/5 91/1/5
f 95/1/5 93/1/5 89/1/5
f 95/1/5 94/1/5 93/1/5
f 96/1/5 92/1/5 94/1/5
f 96/1/5 94/1/5 95/1/5
f 99/1/5 98/1/5 97/1/5
f 100/1/5 98/1/5 99/1/5
f 101/1/6 102/1/6 103/1/6
f 103/1/6 102/1/6 104/1/6
f 105/1/6 106/1/6 109/1/6
f 107/1/6 108/1/6 110/1/6
f 105/1/6 109/1/6 111/1/6
f 109/1/6 110/1/6 111/1/6
f 110/1/6 108/1/6 112/1/6
f 111/1/6 110/1/6 112/1/6
f 113/1/6 114/1/6 115/1/6
f 115/1/6 114/1/6 116/1/6
