# MagicaVoxel @ Ephtracy

# group
o 

# material
mtllib Objs-53.mtl
usemtl palette

# normals
vn 1 0 0
vn -1 0 0
vn 0 0 1
vn 0 0 -1
vn 0 -1 0
vn 0 1 0

# texcoords
vt 0.845703 0.5
vt 0.888672 0.5
vt 0.904297 0.5

# verts
v -17.6 0.2 -0.8
v -17.6 0.2 -0.9
v -17.6 0.2 -1.3
v -17.6 0.2 -1.4
v -17.6 0.2 -1.8
v -17.6 0.2 -1.9
v -17.6 1 -0.9
v -17.6 1 -1.3
v -17.6 1 -1.4
v -17.6 1 -1.8
v -17.6 1.1 -0.8
v -17.6 1.1 -0.9
v -17.6 1.1 -1.3
v -17.6 1.1 -1.4
v -17.6 1.1 -1.8
v -17.6 1.1 -1.9
v -17.8 0.5 -0.9
v -17.8 0.5 -1
v -17.8 0.5 -1.1
v -17.8 0.5 -1.3
v -17.8 0.6 -0.9
v -17.8 0.6 -1
v -17.8 0.6 -1.1
v -17.8 0.6 -1.3
v -18.3 0.5 -1.2
v -18.3 0.5 -1.3
v -18.3 0.6 -1.2
v -18.3 0.6 -1.3
v -17.7 0.5 -0.9
v -17.7 0.5 -1
v -17.7 0.5 -1.1
v -17.7 0.5 -1.3
v -17.7 0.6 -0.9
v -17.7 0.6 -1
v -17.7 0.6 -1.1
v -17.7 0.6 -1.3
v -18 1 -0.8
v -18 1 -0.9
v -18 1 -1.3
v -18 1 -1.4
v -18 1 -1.8
v -18 1 -1.9
v -18 1.1 -0.8
v -18 1.1 -0.9
v -18 1.1 -1.3
v -18 1.1 -1.4
v -18 1.1 -1.8
v -18 1.1 -1.9
v -18.1 0.9 -0.8
v -18.1 0.9 -0.9
v -18.1 0.9 -1.3
v -18.1 0.9 -1.4
v -18.1 0.9 -1.8
v -18.1 0.9 -1.9
v -18.1 1 -0.8
v -18.1 1 -0.9
v -18.1 1 -1.3
v -18.1 1 -1.4
v -18.1 1 -1.8
v -18.1 1 -1.9
v -18.2 0.5 -1.2
v -18.2 0.5 -1.3
v -18.2 0.6 -1.2
v -18.2 0.6 -1.3
v -18.2 0.8 -0.8
v -18.2 0.8 -0.9
v -18.2 0.8 -1.3
v -18.2 0.8 -1.4
v -18.2 0.8 -1.8
v -18.2 0.8 -1.9
v -18.2 0.9 -0.8
v -18.2 0.9 -0.9
v -18.2 0.9 -1.3
v -18.2 0.9 -1.4
v -18.2 0.9 -1.8
v -18.2 0.9 -1.9
v -18.3 0.7 -0.8
v -18.3 0.7 -0.9
v -18.3 0.7 -1.3
v -18.3 0.7 -1.4
v -18.3 0.7 -1.8
v -18.3 0.7 -1.9
v -18.3 0.8 -0.8
v -18.3 0.8 -0.9
v -18.3 0.8 -1.3
v -18.3 0.8 -1.4
v -18.3 0.8 -1.8
v -18.3 0.8 -1.9
v -18.4 0.2 -0.8
v -18.4 0.2 -0.9
v -18.4 0.2 -1.3
v -18.4 0.2 -1.4
v -18.4 0.2 -1.8
v -18.4 0.2 -1.9
v -18.4 0.7 -0.8
v -18.4 0.7 -0.9
v -18.4 0.7 -1.3
v -18.4 0.7 -1.4
v -18.4 0.7 -1.8
v -18.4 0.7 -1.9
v -17.6 0.2 -0.8
v -17.6 1.1 -0.8
v -18 1 -0.8
v -18 1.1 -0.8
v -18.1 0.9 -0.8
v -18.1 1 -0.8
v -18.2 0.8 -0.8
v -18.2 0.9 -0.8
v -18.3 0.7 -0.8
v -18.3 0.8 -0.8
v -18.4 0.2 -0.8
v -18.4 0.7 -0.8
v -17.7 0.5 -1
v -17.7 0.6 -1
v -17.8 0.5 -1
v -17.8 0.6 -1
v -17.7 0.5 -1.3
v -17.7 0.6 -1.3
v -17.8 0.5 -1.3
v -17.8 0.6 -1.3
v -18.2 0.5 -1.3
v -18.2 0.6 -1.3
v -18.3 0.5 -1.3
v -18.3 0.6 -1.3
v -17.7 0.5 -0.9
v -17.7 0.6 -0.9
v -17.8 0.5 -0.9
v -17.8 0.6 -0.9
v -17.7 0.5 -1.1
v -17.7 0.6 -1.1
v -17.8 0.5 -1.1
v -17.8 0.6 -1.1
v -18.2 0.5 -1.2
v -18.2 0.6 -1.2
v -18.3 0.5 -1.2
v -18.3 0.6 -1.2
v -17.6 0.2 -1.9
v -17.6 1.1 -1.9
v -18 1 -1.9
v -18 1.1 -1.9
v -18.1 0.9 -1.9
v -18.1 1 -1.9
v -18.2 0.8 -1.9
v -18.2 0.9 -1.9
v -18.3 0.7 -1.9
v -18.3 0.8 -1.9
v -18.4 0.2 -1.9
v -18.4 0.7 -1.9
v -17.6 0.2 -0.8
v -18.4 0.2 -0.8
v -17.6 0.2 -0.9
v -18.4 0.2 -0.9
v -17.6 0.2 -1.3
v -18.4 0.2 -1.3
v -17.6 0.2 -1.4
v -18.4 0.2 -1.4
v -17.6 0.2 -1.8
v -18.4 0.2 -1.8
v -17.6 0.2 -1.9
v -18.4 0.2 -1.9
v -17.7 0.6 -0.9
v -17.8 0.6 -0.9
v -17.7 0.6 -1
v -17.8 0.6 -1
v -17.7 0.6 -1.1
v -17.8 0.6 -1.1
v -18.2 0.6 -1.2
v -18.3 0.6 -1.2
v -17.7 0.6 -1.3
v -17.8 0.6 -1.3
v -18.2 0.6 -1.3
v -18.3 0.6 -1.3
v -17.7 0.5 -0.9
v -17.8 0.5 -0.9
v -17.7 0.5 -1
v -17.8 0.5 -1
v -17.7 0.5 -1.1
v -17.8 0.5 -1.1
v -18.2 0.5 -1.2
v -18.3 0.5 -1.2
v -17.7 0.5 -1.3
v -17.8 0.5 -1.3
v -18.2 0.5 -1.3
v -18.3 0.5 -1.3
v -18.3 0.7 -0.8
v -18.4 0.7 -0.8
v -18.3 0.7 -0.9
v -18.4 0.7 -0.9
v -18.3 0.7 -1.3
v -18.4 0.7 -1.3
v -18.3 0.7 -1.4
v -18.4 0.7 -1.4
v -18.3 0.7 -1.8
v -18.4 0.7 -1.8
v -18.3 0.7 -1.9
v -18.4 0.7 -1.9
v -18.2 0.8 -0.8
v -18.3 0.8 -0.8
v -18.2 0.8 -0.9
v -18.3 0.8 -0.9
v -18.2 0.8 -1.3
v -18.3 0.8 -1.3
v -18.2 0.8 -1.4
v -18.3 0.8 -1.4
v -18.2 0.8 -1.8
v -18.3 0.8 -1.8
v -18.2 0.8 -1.9
v -18.3 0.8 -1.9
v -18.1 0.9 -0.8
v -18.2 0.9 -0.8
v -18.1 0.9 -0.9
v -18.2 0.9 -0.9
v -18.1 0.9 -1.3
v -18.2 0.9 -1.3
v -18.1 0.9 -1.4
v -18.2 0.9 -1.4
v -18.1 0.9 -1.8
v -18.2 0.9 -1.8
v -18.1 0.9 -1.9
v -18.2 0.9 -1.9
v -18 1 -0.8
v -18.1 1 -0.8
v -18 1 -0.9
v -18.1 1 -0.9
v -18 1 -1.3
v -18.1 1 -1.3
v -18 1 -1.4
v -18.1 1 -1.4
v -18 1 -1.8
v -18.1 1 -1.8
v -18 1 -1.9
v -18.1 1 -1.9
v -17.6 1.1 -0.8
v -18 1.1 -0.8
v -17.6 1.1 -0.9
v -17.7 1.1 -0.9
v -18 1.1 -0.9
v -17.6 1.1 -1.3
v -17.7 1.1 -1.3
v -18 1.1 -1.3
v -17.6 1.1 -1.4
v -17.7 1.1 -1.4
v -18 1.1 -1.4
v -17.6 1.1 -1.8
v -17.7 1.1 -1.8
v -18 1.1 -1.8
v -17.6 1.1 -1.9
v -18 1.1 -1.9

# faces
f 1/3/1 2/3/1 7/3/1
f 2/2/1 3/2/1 7/2/1
f 3/3/1 4/3/1 8/3/1
f 7/2/1 3/2/1 8/2/1
f 4/2/1 5/2/1 9/2/1
f 8/3/1 4/3/1 9/3/1
f 5/3/1 6/3/1 10/3/1
f 9/2/1 5/2/1 10/2/1
f 1/3/1 7/3/1 11/3/1
f 7/1/1 8/1/1 12/1/1
f 11/3/1 7/3/1 12/3/1
f 8/3/1 9/3/1 13/3/1
f 12/1/1 8/1/1 13/1/1
f 9/1/1 10/1/1 14/1/1
f 13/3/1 9/3/1 14/3/1
f 10/3/1 6/3/1 15/3/1
f 14/1/1 10/1/1 15/1/1
f 15/3/1 6/3/1 16/3/1
f 17/2/1 18/2/1 21/2/1
f 21/2/1 18/2/1 22/2/1
f 19/2/1 20/2/1 23/2/1
f 23/2/1 20/2/1 24/2/1
f 25/2/1 26/2/1 27/2/1
f 27/2/1 26/2/1 28/2/1
f 33/2/2 30/2/2 29/2/2
f 34/2/2 30/2/2 33/2/2
f 35/2/2 32/2/2 31/2/2
f 36/2/2 32/2/2 35/2/2
f 43/3/2 38/3/2 37/3/2
f 44/2/2 39/2/2 38/2/2
f 44/3/2 38/3/2 43/3/2
f 45/3/2 40/3/2 39/3/2
f 45/2/2 39/2/2 44/2/2
f 46/2/2 41/2/2 40/2/2
f 46/3/2 40/3/2 45/3/2
f 47/3/2 42/3/2 41/3/2
f 47/2/2 41/2/2 46/2/2
f 48/3/2 42/3/2 47/3/2
f 55/3/2 50/3/2 49/3/2
f 56/2/2 51/2/2 50/2/2
f 56/3/2 50/3/2 55/3/2
f 57/3/2 52/3/2 51/3/2
f 57/2/2 51/2/2 56/2/2
f 58/2/2 53/2/2 52/2/2
f 58/3/2 52/3/2 57/3/2
f 59/3/2 54/3/2 53/3/2
f 59/2/2 53/2/2 58/2/2
f 60/3/2 54/3/2 59/3/2
f 63/2/2 62/2/2 61/2/2
f 64/2/2 62/2/2 63/2/2
f 71/3/2 66/3/2 65/3/2
f 72/2/2 67/2/2 66/2/2
f 72/3/2 66/3/2 71/3/2
f 73/3/2 68/3/2 67/3/2
f 73/2/2 67/2/2 72/2/2
f 74/2/2 69/2/2 68/2/2
f 74/3/2 68/3/2 73/3/2
f 75/3/2 70/3/2 69/3/2
f 75/2/2 69/2/2 74/2/2
f 76/3/2 70/3/2 75/3/2
f 83/3/2 78/3/2 77/3/2
f 84/2/2 79/2/2 78/2/2
f 84/3/2 78/3/2 83/3/2
f 85/3/2 80/3/2 79/3/2
f 85/2/2 79/2/2 84/2/2
f 86/2/2 81/2/2 80/2/2
f 86/3/2 80/3/2 85/3/2
f 87/3/2 82/3/2 81/3/2
f 87/2/2 81/2/2 86/2/2
f 88/3/2 82/3/2 87/3/2
f 95/3/2 90/3/2 89/3/2
f 96/2/2 91/2/2 90/2/2
f 96/3/2 90/3/2 95/3/2
f 97/3/2 92/3/2 91/3/2
f 97/2/2 91/2/2 96/2/2
f 98/2/2 93/2/2 92/2/2
f 98/3/2 92/3/2 97/3/2
f 99/3/2 94/3/2 93/3/2
f 99/2/2 93/2/2 98/2/2
f 100/3/2 94/3/2 99/3/2
f 101/3/3 102/3/3 103/3/3
f 103/3/3 102/3/3 104/3/3
f 101/3/3 103/3/3 105/3/3
f 105/3/3 103/3/3 106/3/3
f 101/3/3 105/3/3 107/3/3
f 107/3/3 105/3/3 108/3/3
f 101/3/3 107/3/3 109/3/3
f 109/3/3 107/3/3 110/3/3
f 101/3/3 109/3/3 111/3/3
f 111/3/3 109/3/3 112/3/3
f 113/2/3 114/2/3 115/2/3
f 115/2/3 114/2/3 116/2/3
f 117/3/3 118/3/3 119/3/3
f 119/3/3 118/3/3 120/3/3
f 121/3/3 122/3/3 123/3/3
f 123/3/3 122/3/3 124/3/3
f 127/3/4 126/3/4 125/3/4
f 128/3/4 126/3/4 127/3/4
f 131/2/4 130/2/4 129/2/4
f 132/2/4 130/2/4 131/2/4
f 135/2/4 134/2/4 133/2/4
f 136/2/4 134/2/4 135/2/4
f 139/3/4 138/3/4 137/3/4
f 140/3/4 138/3/4 139/3/4
f 141/3/4 139/3/4 137/3/4
f 142/3/4 139/3/4 141/3/4
f 143/3/4 141/3/4 137/3/4
f 144/3/4 141/3/4 143/3/4
f 145/3/4 143/3/4 137/3/4
f 146/3/4 143/3/4 145/3/4
f 147/3/4 145/3/4 137/3/4
f 148/3/4 145/3/4 147/3/4
f 149/3/5 150/3/5 151/3/5
f 151/3/5 150/3/5 152/3/5
f 151/2/5 152/2/5 153/2/5
f 153/2/5 152/2/5 154/2/5
f 153/3/5 154/3/5 155/3/5
f 155/3/5 154/3/5 156/3/5
f 155/2/5 156/2/5 157/2/5
f 157/2/5 156/2/5 158/2/5
f 157/3/5 158/3/5 159/3/5
f 159/3/5 158/3/5 160/3/5
f 161/2/5 162/2/5 163/2/5
f 163/2/5 162/2/5 164/2/5
f 165/2/5 166/2/5 169/2/5
f 169/2/5 166/2/5 170/2/5
f 167/2/5 168/2/5 171/2/5
f 171/2/5 168/2/5 172/2/5
f 175/2/6 174/2/6 173/2/6
f 176/2/6 174/2/6 175/2/6
f 181/2/6 178/2/6 177/2/6
f 182/2/6 178/2/6 181/2/6
f 183/2/6 180/2/6 179/2/6
f 184/2/6 180/2/6 183/2/6
f 187/3/6 186/3/6 185/3/6
f 188/3/6 186/3/6 187/3/6
f 189/2/6 188/2/6 187/2/6
f 190/2/6 188/2/6 189/2/6
f 191/3/6 190/3/6 189/3/6
f 192/3/6 190/3/6 191/3/6
f 193/2/6 192/2/6 191/2/6
f 194/2/6 192/2/6 193/2/6
f 195/3/6 194/3/6 193/3/6
f 196/3/6 194/3/6 195/3/6
f 199/3/6 198/3/6 197/3/6
f 200/3/6 198/3/6 199/3/6
f 201/2/6 200/2/6 199/2/6
f 202/2/6 200/2/6 201/2/6
f 203/3/6 202/3/6 201/3/6
f 204/3/6 202/3/6 203/3/6
f 205/2/6 204/2/6 203/2/6
f 206/2/6 204/2/6 205/2/6
f 207/3/6 206/3/6 205/3/6
f 208/3/6 206/3/6 207/3/6
f 211/3/6 210/3/6 209/3/6
f 212/3/6 210/3/6 211/3/6
f 213/2/6 212/2/6 211/2/6
f 214/2/6 212/2/6 213/2/6
f 215/3/6 214/3/6 213/3/6
f 216/3/6 214/3/6 215/3/6
f 217/2/6 216/2/6 215/2/6
f 218/2/6 216/2/6 217/2/6
f 219/3/6 218/3/6 217/3/6
f 220/3/6 218/3/6 219/3/6
f 223/3/6 222/3/6 221/3/6
f 224/3/6 222/3/6 223/3/6
f 225/2/6 224/2/6 223/2/6
f 226/2/6 224/2/6 225/2/6
f 227/3/6 226/3/6 225/3/6
f 228/3/6 226/3/6 227/3/6
f 229/2/6 228/2/6 227/2/6
f 230/2/6 228/2/6 229/2/6
f 231/3/6 230/3/6 229/3/6
f 232/3/6 230/3/6 231/3/6
f 235/3/6 234/3/6 233/3/6
f 236/3/6 234/3/6 235/3/6
f 237/3/6 234/3/6 236/3/6
f 238/1/6 236/1/6 235/1/6
f 239/2/6 237/2/6 236/2/6
f 239/1/6 236/1/6 238/1/6
f 240/2/6 237/2/6 239/2/6
f 241/3/6 239/3/6 238/3/6
f 241/3/6 240/3/6 239/3/6
f 242/3/6 240/3/6 241/3/6
f 243/3/6 240/3/6 242/3/6
f 244/1/6 242/1/6 241/1/6
f 245/2/6 243/2/6 242/2/6
f 245/1/6 242/1/6 244/1/6
f 246/2/6 243/2/6 245/2/6
f 247/3/6 245/3/6 244/3/6
f 247/3/6 246/3/6 245/3/6
f 248/3/6 246/3/6 247/3/6
